<svg width="48" height="48" viewBox="0 0 48 48" fill="none" xmlns="http://www.w3.org/2000/svg">
<path d="M26.6473 6.00104C23.7173 5.96104 20.8873 7.08104 18.7773 9.12104C16.6673 11.161 15.4573 13.951 15.4073 16.891V18.311C15.4073 19.231 15.1373 20.131 14.6273 20.891L12.4673 23.471C12.4073 23.611 12.3773 23.761 12.3973 23.901C12.4273 24.061 12.5073 24.221 12.6173 24.331L14.3573 25.631C14.4973 25.741 14.5873 25.891 14.6273 26.061C14.6673 26.231 14.6473 26.411 14.5673 26.561L14.1673 27.401L14.9873 27.801C15.0973 27.861 15.1873 27.931 15.2573 28.031C15.3273 28.131 15.3773 28.241 15.3973 28.351C15.4173 28.471 15.4073 28.591 15.3673 28.701C15.3273 28.811 15.2673 28.911 15.1873 29.001L14.9673 29.221L15.9373 30.191C16.0773 30.331 16.1573 30.521 16.1573 30.711V32.211C16.1673 32.411 16.2473 32.591 16.3873 32.731C16.5273 32.871 16.7073 32.951 16.9073 32.961C17.5173 32.911 18.1173 32.771 18.6873 32.541C18.9873 32.451 19.3173 32.351 19.6773 32.241C20.0573 32.131 20.4573 32.091 20.8473 32.141C21.2373 32.181 21.6273 32.311 21.9673 32.501C22.3173 32.691 22.6173 32.951 22.8673 33.261C23.1173 33.571 23.2973 33.931 23.4073 34.311C23.8873 36.651 24.1973 39.011 24.3473 41.391C24.7173 41.491 25.2273 41.631 25.5573 41.701C27.2573 42.041 29.0073 42.041 30.6973 41.701C31.5173 41.531 32.3173 41.281 33.0773 40.951C33.8373 40.631 34.5573 40.241 35.2373 39.781C35.5573 39.571 35.8573 39.351 36.1473 39.111C35.4473 37.461 33.3573 32.361 33.3573 28.461C33.5273 26.731 34.2073 25.091 35.3173 23.751C35.7373 23.121 36.1573 22.481 36.5173 21.821C36.7873 21.331 37.0073 20.811 37.1773 20.281C37.5873 19.121 37.8173 17.901 37.8473 16.671C37.7473 13.771 36.5073 11.031 34.4073 9.03104C32.3073 7.03104 29.4973 5.94104 26.5973 5.98104L26.6473 6.00104Z" fill="white"/>
<path fill-rule="evenodd" clip-rule="evenodd" d="M17.7518 8.06354C20.1493 5.74185 23.3694 4.46092 26.7099 4.50095C29.9902 4.46092 33.1501 5.69181 35.5376 7.93344C37.9251 10.1751 39.3395 13.2473 39.5 16.5097V16.9C39.4498 18.2309 39.189 19.5419 38.7476 20.8028C38.537 21.4133 38.2862 22.0137 37.9853 22.5841C37.594 23.3046 37.1426 23.9751 36.7113 24.6256C35.7783 25.7264 35.1764 27.0774 34.9959 28.5084C34.9959 32.4813 37.4736 38.1054 37.8348 38.936C37.8649 39.0061 37.8749 39.0361 37.8849 39.0461C37.9552 39.1962 37.9752 39.3563 37.9451 39.5164C37.915 39.6765 37.8247 39.8166 37.7044 39.9267C37.2329 40.337 36.7313 40.7273 36.2197 41.0776C34.6749 42.1083 32.9394 42.8388 31.1237 43.2191C30.1707 43.4093 29.2077 43.5093 28.2347 43.4993C27.2716 43.4993 26.3086 43.4093 25.3656 43.2191C24.7337 43.089 23.5199 42.7288 23.5199 42.7288C23.3694 42.6787 23.239 42.5987 23.1487 42.4686C23.0484 42.3485 22.9982 42.1984 22.9782 42.0483C22.8477 39.5965 22.5368 37.1547 22.0452 34.753C21.9951 34.5628 21.9048 34.3827 21.7844 34.2226C21.664 34.0625 21.5136 33.9324 21.343 33.8323C21.1725 33.7322 20.9819 33.6722 20.7813 33.6522C20.5806 33.6321 20.39 33.6522 20.1994 33.7122C19.8684 33.8123 19.5574 33.9023 19.2866 33.9924L19.2164 34.0124C18.4941 34.2826 17.7417 34.4527 16.9793 34.4928C16.3875 34.4828 15.8157 34.2326 15.4044 33.8223C14.9831 33.402 14.7423 32.8416 14.7323 32.2511V31.0703L13.4382 29.7793C13.2978 29.6392 13.2276 29.4491 13.2276 29.259C13.2276 29.0688 13.3078 28.8787 13.4382 28.7386V28.7186L12.8865 28.4384C12.716 28.3483 12.5855 28.1882 12.5153 27.998C12.4551 27.8079 12.4652 27.6078 12.5555 27.4276L13.0169 26.4869L11.6927 25.4962C11.3015 25.126 11.0407 24.6356 10.9705 24.1052C10.9003 23.5748 11.0307 23.0344 11.3316 22.5941L13.4984 20.0122C13.8094 19.5119 13.9799 18.9214 13.9799 18.331V16.91C14.0301 13.5776 15.4044 10.3952 17.7919 8.07355L17.7518 8.06354ZM36.6511 21.8636C36.9219 21.3732 37.1426 20.8528 37.3131 20.3225C37.7244 19.1616 37.9552 17.9407 37.9853 16.7098C37.8849 13.8077 36.641 11.0657 34.5344 9.06427C32.4278 7.06281 29.609 5.97202 26.6998 6.01205C23.7606 5.97202 20.9217 7.09283 18.8051 9.13432C16.6884 11.1758 15.4746 13.9678 15.4245 16.91V18.331C15.4245 19.2517 15.1536 20.1523 14.642 20.9129L12.4752 23.4948C12.415 23.6349 12.3849 23.785 12.405 23.9251C12.4351 24.0852 12.5153 24.2453 12.6257 24.3554L14.3711 25.6563C14.5116 25.7664 14.6019 25.9165 14.642 26.0867C14.6821 26.2568 14.6621 26.4369 14.5818 26.587L14.1806 27.4276L15.0031 27.8279C15.1135 27.888 15.2038 27.958 15.274 28.0581C15.3442 28.1582 15.3944 28.2682 15.4144 28.3783C15.4345 28.4984 15.4245 28.6185 15.3843 28.7286C15.3442 28.8387 15.284 28.9387 15.2038 29.0288L14.9831 29.249L15.9561 30.2197C16.0966 30.3598 16.1768 30.5499 16.1768 30.74V32.2411C16.1868 32.4413 16.2671 32.6214 16.4075 32.7615C16.548 32.9016 16.7285 32.9817 16.9292 32.9917C17.5411 32.9416 18.143 32.8015 18.7148 32.5714C18.8352 32.5413 18.9555 32.5013 19.0759 32.4613C19.2765 32.4012 19.4872 32.3312 19.7079 32.2712C20.0891 32.1611 20.4904 32.121 20.8816 32.1711C21.2728 32.2111 21.664 32.3412 22.0051 32.5313C22.3562 32.7215 22.6572 32.9817 22.9079 33.2919C23.1587 33.6021 23.3393 33.9624 23.4496 34.3427C23.9311 36.6844 24.2421 39.0461 24.3926 41.4278C24.7638 41.5279 25.2754 41.668 25.6064 41.738C27.3118 42.0883 29.0673 42.0883 30.7626 41.738C31.5852 41.5679 32.3877 41.3177 33.1501 40.9875C33.9125 40.6673 34.6347 40.277 35.3169 39.8166C35.6379 39.6065 35.9388 39.3863 36.2297 39.1462C35.5275 37.495 33.431 32.3912 33.431 28.4884C33.6015 26.7571 34.2836 25.1159 35.3971 23.775C35.8185 23.1445 36.2398 22.504 36.6009 21.8436L36.6511 21.8636Z" fill="#003B71"/>
<path fill-rule="evenodd" clip-rule="evenodd" d="M30.2411 22.1638C30.3916 21.8035 30.4718 21.4132 30.4718 21.0129C30.4718 20.4225 30.2913 19.8521 29.9703 19.3617C29.6392 18.8714 29.1778 18.4911 28.6361 18.2509C28.2649 18.0908 27.8636 18.0107 27.4624 18.0107C27.0611 18.0107 26.6599 18.0908 26.2887 18.2509C25.5765 18.5611 25.0047 19.1316 24.6937 19.8421C24.6134 20.0222 24.6134 20.2324 24.6937 20.4225C24.7639 20.6126 24.9144 20.7527 25.095 20.8328C25.2856 20.9028 25.4862 20.9028 25.6768 20.8328C25.8573 20.7527 26.0078 20.6126 26.0881 20.4325C26.1583 20.2524 26.2686 20.0923 26.399 19.9522C26.5395 19.8121 26.7 19.712 26.8806 19.6419C27.0611 19.5619 27.2618 19.5218 27.4624 19.5218C27.663 19.5218 27.8636 19.5619 28.0442 19.6419C28.2248 19.712 28.3853 19.8221 28.5257 19.9522C28.6662 20.0923 28.7665 20.2524 28.8367 20.4325C28.9169 20.6126 28.9571 20.8128 28.9571 21.0129C28.9571 21.2131 28.9169 21.4132 28.8367 21.5933C28.7564 21.7835 28.6361 21.9536 28.4956 22.1037C28.1345 22.444 27.8536 22.8543 27.673 23.3146C27.4925 23.7749 27.4223 24.2653 27.4524 24.7557C27.4524 24.8557 27.4323 24.9558 27.3922 25.0359C27.3621 25.1259 27.3019 25.216 27.2317 25.276C27.1715 25.3461 27.0912 25.4061 27.011 25.4361C26.8204 25.5062 26.6097 25.5062 26.4291 25.4361C26.2486 25.3561 26.1081 25.216 26.0279 25.0359C25.9476 24.8557 25.7972 24.7056 25.6166 24.6356C25.436 24.5655 25.2254 24.5655 25.0448 24.6456C24.8642 24.7256 24.7138 24.8757 24.6435 25.0559C24.5733 25.246 24.5733 25.4462 24.6435 25.6263C24.7539 25.8865 24.9244 26.1266 25.125 26.3268C25.3257 26.5369 25.5765 26.6971 25.8473 26.8071C26.1182 26.9272 26.4191 26.9873 26.7201 26.9873C27.021 26.9873 27.3219 26.9272 27.6028 26.8071C27.8636 26.6971 28.1044 26.5269 28.305 26.3268C28.5157 26.1266 28.6762 25.8765 28.7865 25.6063C28.9169 25.286 28.9771 24.9458 28.9671 24.6055C28.9571 24.3253 28.9972 24.0451 29.1075 23.7849C29.2179 23.5248 29.3784 23.2946 29.5891 23.1045C29.8699 22.8242 30.0906 22.494 30.2411 22.1337V22.1638Z" fill="#003B71"/>
<path d="M10.5127 19.5H9.01013V21H10.5127V19.5Z" fill="#003B71"/>
<path d="M7.5076 22.5H6.00507V24H7.5076V22.5Z" fill="#003B71"/>
<path d="M9.01013 33H7.5076V34.5H9.01013V33Z" fill="#003B71"/>
<path d="M4.50253 25.5H3V27H4.50253V25.5Z" fill="#003B71"/>
<path d="M10.5127 25.5H9.01013V27H10.5127V25.5Z" fill="#003B71"/>
<path d="M12.0152 30H10.5127V31.5H12.0152V30Z" fill="#003B71"/>
<path d="M7.5076 28.5H6.00507V30H7.5076V28.5Z" fill="#003B71"/>
</svg>
