<svg width="48" height="48" viewBox="0 0 48 48" fill="none" xmlns="http://www.w3.org/2000/svg">
<path fill-rule="evenodd" clip-rule="evenodd" d="M15 17.25C12.93 17.25 11.25 18.93 11.25 21C11.25 23.07 12.93 24.75 15 24.75C17.07 24.75 18.75 23.07 18.75 21C18.75 18.93 17.07 17.25 15 17.25ZM15 23.25C13.755 23.25 12.75 22.245 12.75 21C12.75 19.755 13.755 18.75 15 18.75C16.245 18.75 17.25 19.755 17.25 21C17.25 22.245 16.245 23.25 15 23.25Z" fill="#003B71"/>
<path fill-rule="evenodd" clip-rule="evenodd" d="M42 9H6C4.35003 9 3 10.35 3 12V36C3 37.65 4.35003 39 6 39H42C43.65 39 45 37.65 45 36V12C45 10.35 43.65 9 42 9ZM43.5 36C43.5 36.825 42.825 37.5 42 37.5H6C5.17502 37.5 4.5 36.825 4.5 36V12C4.5 11.175 5.17502 10.5 6 10.5H42C42.825 10.5 43.5 11.175 43.5 12V36Z" fill="#003B71"/>
<path fill-rule="evenodd" clip-rule="evenodd" d="M21.75 13.5H8.25C7.82995 13.5 7.5 13.83 7.5 14.25V33.75C7.5 34.17 7.82995 34.5 8.25 34.5H21.75C22.17 34.5 22.5 34.17 22.5 33.75V14.25C22.5 13.83 22.17 13.5 21.75 13.5ZM21 33H9V31.5C9 29.43 10.935 27.75 13.32 27.75H16.68C19.065 27.75 21 29.43 21 31.5L21 33ZM21 28.02C19.935 26.94 18.405 26.25 16.68 26.25H13.32C11.595 26.25 10.065 26.94 9.00002 28.02V15H21V28.02Z" fill="#003B71"/>
<path fill-rule="evenodd" clip-rule="evenodd" d="M40.5 17.25C40.5 17.67 40.17 18 39.75 18H26.25C25.83 18 25.5 17.67 25.5 17.25C25.5 16.83 25.83 16.5 26.25 16.5H39.75C40.17 16.5 40.5 16.83 40.5 17.25Z" fill="#003B71"/>
<path fill-rule="evenodd" clip-rule="evenodd" d="M37.5 21.75C37.5 22.17 37.17 22.5 36.75 22.5H26.25C25.83 22.5 25.5 22.17 25.5 21.75C25.5 21.33 25.83 21 26.25 21H36.75C37.17 21 37.5 21.33 37.5 21.75Z" fill="#003B71"/>
<path fill-rule="evenodd" clip-rule="evenodd" d="M37.5 26.25C37.5 26.67 37.17 27 36.75 27H26.25C25.83 27 25.5 26.67 25.5 26.25C25.5 25.83 25.83 25.5 26.25 25.5H36.75C37.17 25.5 37.5 25.83 37.5 26.25Z" fill="#003B71"/>
<path fill-rule="evenodd" clip-rule="evenodd" d="M37.5 30.75C37.5 31.17 37.17 31.5 36.75 31.5H26.25C25.83 31.5 25.5 31.17 25.5 30.75C25.5 30.33 25.83 30 26.25 30H36.75C37.17 30 37.5 30.33 37.5 30.75Z" fill="#003B71"/>
<path fill-rule="evenodd" clip-rule="evenodd" d="M42 10.5H6C5.17502 10.5 4.5 11.175 4.5 12V36C4.5 36.825 5.17502 37.5 6 37.5H42C42.825 37.5 43.5 36.825 43.5 36V12C43.5 11.175 42.825 10.5 42 10.5ZM22.5 33.75C22.5 34.17 22.17 34.5 21.75 34.5H8.25C7.82995 34.5 7.5 34.17 7.5 33.75V14.25C7.5 13.83 7.82995 13.5 8.25 13.5H21.75C22.17 13.5 22.5 13.83 22.5 14.25V33.75ZM36.75 31.5H26.25C25.83 31.5 25.5 31.17 25.5 30.75C25.5 30.33 25.83 30 26.25 30H36.75C37.17 30 37.5 30.33 37.5 30.75C37.5 31.17 37.17 31.5 36.75 31.5ZM36.75 27H26.25C25.83 27 25.5 26.67 25.5 26.25C25.5 25.83 25.83 25.5 26.25 25.5H36.75C37.17 25.5 37.5 25.83 37.5 26.25C37.5 26.67 37.17 27 36.75 27ZM36.75 22.5H26.25C25.83 22.5 25.5 22.17 25.5 21.75C25.5 21.33 25.83 21 26.25 21H36.75C37.17 21 37.5 21.33 37.5 21.75C37.5 22.17 37.17 22.5 36.75 22.5ZM39.75 18H26.25C25.83 18 25.5 17.67 25.5 17.25C25.5 16.83 25.83 16.5 26.25 16.5H39.75C40.17 16.5 40.5 16.83 40.5 17.25C40.5 17.67 40.17 18 39.75 18Z" fill="white"/>
<path fill-rule="evenodd" clip-rule="evenodd" d="M16.68 27.75H13.32C10.935 27.75 9.00002 29.43 9.00002 31.5V33H21V31.5C21 29.43 19.065 27.75 16.68 27.75Z" fill="white"/>
<path d="M15 23.25C16.2426 23.25 17.25 22.2426 17.25 21C17.25 19.7574 16.2426 18.75 15 18.75C13.7574 18.75 12.75 19.7574 12.75 21C12.75 22.2426 13.7574 23.25 15 23.25Z" fill="white"/>
<path fill-rule="evenodd" clip-rule="evenodd" d="M9 15V28.02C10.065 26.94 11.595 26.25 13.32 26.25H16.68C18.405 26.25 19.935 26.94 21 28.02V15H9ZM15 24.75C12.93 24.75 11.25 23.07 11.25 21C11.25 18.93 12.93 17.25 15 17.25C17.07 17.25 18.75 18.93 18.75 21C18.75 23.07 17.07 24.75 15 24.75Z" fill="#92CCF0"/>
</svg>
