<svg width="48" height="48" viewBox="0 0 48 48" fill="none" xmlns="http://www.w3.org/2000/svg">
<path d="M27.75 3.75H12.27C10.875 3.75 9.75 4.935 9.75 6.39V41.61C9.75 43.065 10.875 44.25 12.27 44.25H35.73C37.125 44.25 38.25 43.065 38.25 41.61V14.25L27.75 3.75ZM28.5 5.565L36.435 13.5H28.5V5.565ZM22.5 22.5H15V12H22.5V22.5Z" fill="white"/>
<path fill-rule="evenodd" clip-rule="evenodd" d="M27.75 14.25V3.75L38.25 14.25H27.75ZM14.25 11.25H23.25V23.25H14.25V11.25Z" fill="#92CCF0"/>
<path fill-rule="evenodd" clip-rule="evenodd" d="M38.775 13.725L28.275 3.225C28.125 3.075 27.945 3 27.75 3H12.27C10.47 3 9 4.515 9 6.39V41.61C9 43.485 10.47 45 12.27 45H35.73C37.53 45 39 43.485 39 41.61V14.25C39 14.055 38.925 13.875 38.775 13.725ZM36.435 13.5H28.5V5.565L36.435 13.5ZM37.5 41.61C37.5 42.645 36.705 43.5 35.73 43.5H12.27C11.295 43.5 10.5 42.645 10.5 41.61V6.39C10.5 5.355 11.295 4.5 12.27 4.5H27V14.25C27 14.67 27.33 15 27.75 15H37.5V41.61ZM23.25 10.5H14.25C13.83 10.5 13.5 10.83 13.5 11.25V23.25C13.5 23.67 13.83 24 14.25 24H23.25C23.67 24 24 23.67 24 23.25V11.25C24 10.83 23.67 10.5 23.25 10.5ZM22.5 22.5H15V12H22.5V22.5ZM13.5 27.75C13.5 28.17 13.83 28.5 14.25 28.5H33.75C34.17 28.5 34.5 28.17 34.5 27.75C34.5 27.33 34.17 27 33.75 27H14.25C13.83 27 13.5 27.33 13.5 27.75ZM14.25 33C13.83 33 13.5 32.67 13.5 32.25C13.5 31.83 13.83 31.5 14.25 31.5H33.75C34.17 31.5 34.5 31.83 34.5 32.25C34.5 32.67 34.17 33 33.75 33H14.25ZM13.5 36.75C13.5 37.17 13.83 37.5 14.25 37.5H33.75C34.17 37.5 34.5 37.17 34.5 36.75C34.5 36.33 34.17 36 33.75 36H14.25C13.83 36 13.5 36.33 13.5 36.75Z" fill="#003B71"/>
</svg>
