<svg width="48" height="48" viewBox="0 0 48 48" fill="none" xmlns="http://www.w3.org/2000/svg">
<path fill-rule="evenodd" clip-rule="evenodd" d="M7.5 39C7.5 39.3978 7.65804 39.7794 7.93934 40.0607C8.22064 40.342 8.60218 40.5 9 40.5H39C39.3978 40.5 39.7794 40.342 40.0607 40.0607C40.342 39.7794 40.5 39.3978 40.5 39V16.5H7.5V39ZM30 21.75C30 21.5511 30.079 21.3603 30.2197 21.2197C30.3603 21.079 30.5511 21 30.75 21H35.25C35.4489 21 35.6397 21.079 35.7803 21.2197C35.921 21.3603 36 21.5511 36 21.75V26.25C36 26.4489 35.921 26.6397 35.7803 26.7803C35.6397 26.921 35.4489 27 35.25 27H30.75C30.5511 27 30.3603 26.921 30.2197 26.7803C30.079 26.6397 30 26.4489 30 26.25V21.75ZM30 30.75C30 30.5511 30.079 30.3603 30.2197 30.2197C30.3603 30.079 30.5511 30 30.75 30H35.25C35.4489 30 35.6397 30.079 35.7803 30.2197C35.921 30.3603 36 30.5511 36 30.75V35.25C36 35.4489 35.921 35.6397 35.7803 35.7803C35.6397 35.921 35.4489 36 35.25 36H30.75C30.5511 36 30.3603 35.921 30.2197 35.7803C30.079 35.6397 30 35.4489 30 35.25V30.75ZM21 21.75C21 21.5511 21.079 21.3603 21.2197 21.2197C21.3603 21.079 21.5511 21 21.75 21H26.25C26.4489 21 26.6397 21.079 26.7803 21.2197C26.921 21.3603 27 21.5511 27 21.75V26.25C27 26.4489 26.921 26.6397 26.7803 26.7803C26.6397 26.921 26.4489 27 26.25 27H21.75C21.5511 27 21.3603 26.921 21.2197 26.7803C21.079 26.6397 21 26.4489 21 26.25V21.75ZM21 30.75C21 30.5511 21.079 30.3603 21.2197 30.2197C21.3603 30.079 21.5511 30 21.75 30H26.25C26.4489 30 26.6397 30.079 26.7803 30.2197C26.921 30.3603 27 30.5511 27 30.75V35.25C27 35.4489 26.921 35.6397 26.7803 35.7803C26.6397 35.921 26.4489 36 26.25 36H21.75C21.5511 36 21.3603 35.921 21.2197 35.7803C21.079 35.6397 21 35.4489 21 35.25V30.75ZM12 21.75C12 21.5511 12.079 21.3603 12.2197 21.2197C12.3603 21.079 12.5511 21 12.75 21H17.25C17.4489 21 17.6397 21.079 17.7803 21.2197C17.921 21.3603 18 21.5511 18 21.75V26.25C18 26.4489 17.921 26.6397 17.7803 26.7803C17.6397 26.921 17.4489 27 17.25 27H12.75C12.5511 27 12.3603 26.921 12.2197 26.7803C12.079 26.6397 12 26.4489 12 26.25V21.75ZM12 30.75C12 30.5511 12.079 30.3603 12.2197 30.2197C12.3603 30.079 12.5511 30 12.75 30H17.25C17.4489 30 17.6397 30.079 17.7803 30.2197C17.921 30.3603 18 30.5511 18 30.75V35.25C18 35.4489 17.921 35.6397 17.7803 35.7803C17.6397 35.921 17.4489 36 17.25 36H12.75C12.5511 36 12.3603 35.921 12.2197 35.7803C12.079 35.6397 12 35.4489 12 35.25V30.75ZM25.5 31.5H22.5V34.5H25.5V31.5ZM31.5 22.5H34.5V25.5H31.5V22.5ZM16.5 31.5H13.5V34.5H16.5V31.5ZM13.5 22.5H16.5V25.5H13.5V22.5ZM34.5 31.5H31.5V34.5H34.5V31.5ZM22.5 22.5H25.5V25.5H22.5V22.5Z" fill="white"/>
<path d="M39 10.5H9C8.60218 10.5 8.22064 10.658 7.93934 10.9393C7.65804 11.2206 7.5 11.6022 7.5 12V15H40.5V12C40.5 11.6022 40.342 11.2206 40.0607 10.9393C39.7794 10.658 39.3978 10.5 39 10.5Z" fill="#92CCF0"/>
<path fill-rule="evenodd" clip-rule="evenodd" d="M36 9H39C39.7957 9 40.5587 9.31607 41.1213 9.87868C41.6839 10.4413 42 11.2044 42 12V39C42 39.7957 41.6839 40.5587 41.1213 41.1213C40.5587 41.6839 39.7957 42 39 42H9C8.20435 42 7.44129 41.6839 6.87868 41.1213C6.31607 40.5587 6 39.7957 6 39V12C6 11.2044 6.31607 10.4413 6.87868 9.87868C7.44129 9.31607 8.20435 9 9 9H12V6.75C12 6.55109 12.079 6.36032 12.2197 6.21967C12.3603 6.07902 12.5511 6 12.75 6C12.9489 6 13.1397 6.07902 13.2803 6.21967C13.421 6.36032 13.5 6.55109 13.5 6.75V9H34.5V6.75C34.5 6.55109 34.579 6.36032 34.7197 6.21967C34.8603 6.07902 35.0511 6 35.25 6C35.4489 6 35.6397 6.07902 35.7803 6.21967C35.921 6.36032 36 6.55109 36 6.75V9ZM40.5 39V16.5H7.5V39C7.5 39.3978 7.65804 39.7794 7.93934 40.0607C8.22064 40.342 8.60218 40.5 9 40.5H39C39.3978 40.5 39.7794 40.342 40.0607 40.0607C40.342 39.7794 40.5 39.3978 40.5 39ZM7.5 15H40.5V12C40.5 11.6022 40.342 11.2206 40.0607 10.9393C39.7794 10.658 39.3978 10.5 39 10.5H9C8.60218 10.5 8.22064 10.658 7.93934 10.9393C7.65804 11.2206 7.5 11.6022 7.5 12V15ZM12.75 21H17.25C17.4489 21 17.6397 21.079 17.7803 21.2197C17.921 21.3603 18 21.5511 18 21.75V26.25C18 26.4489 17.921 26.6397 17.7803 26.7803C17.6397 26.921 17.4489 27 17.25 27H12.75C12.5511 27 12.3603 26.921 12.2197 26.7803C12.079 26.6397 12 26.4489 12 26.25V21.75C12 21.5511 12.079 21.3603 12.2197 21.2197C12.3603 21.079 12.5511 21 12.75 21ZM13.5 25.5H16.5V22.5H13.5V25.5ZM17.25 30H12.75C12.5511 30 12.3603 30.079 12.2197 30.2197C12.079 30.3603 12 30.5511 12 30.75V35.25C12 35.4489 12.079 35.6397 12.2197 35.7803C12.3603 35.921 12.5511 36 12.75 36H17.25C17.4489 36 17.6397 35.921 17.7803 35.7803C17.921 35.6397 18 35.4489 18 35.25V30.75C18 30.5511 17.921 30.3603 17.7803 30.2197C17.6397 30.079 17.4489 30 17.25 30ZM16.5 34.5H13.5V31.5H16.5V34.5ZM21.75 21H26.25C26.4489 21 26.6397 21.079 26.7803 21.2197C26.921 21.3603 27 21.5511 27 21.75V26.25C27 26.4489 26.921 26.6397 26.7803 26.7803C26.6397 26.921 26.4489 27 26.25 27H21.75C21.5511 27 21.3603 26.921 21.2197 26.7803C21.079 26.6397 21 26.4489 21 26.25V21.75C21 21.5511 21.079 21.3603 21.2197 21.2197C21.3603 21.079 21.5511 21 21.75 21ZM22.5 25.5H25.5V22.5H22.5V25.5ZM26.25 30H21.75C21.5511 30 21.3603 30.079 21.2197 30.2197C21.079 30.3603 21 30.5511 21 30.75V35.25C21 35.4489 21.079 35.6397 21.2197 35.7803C21.3603 35.921 21.5511 36 21.75 36H26.25C26.4489 36 26.6397 35.921 26.7803 35.7803C26.921 35.6397 27 35.4489 27 35.25V30.75C27 30.5511 26.921 30.3603 26.7803 30.2197C26.6397 30.079 26.4489 30 26.25 30ZM25.5 34.5H22.5V31.5H25.5V34.5ZM30.75 21H35.25C35.4489 21 35.6397 21.079 35.7803 21.2197C35.921 21.3603 36 21.5511 36 21.75V26.25C36 26.4489 35.921 26.6397 35.7803 26.7803C35.6397 26.921 35.4489 27 35.25 27H30.75C30.5511 27 30.3603 26.921 30.2197 26.7803C30.079 26.6397 30 26.4489 30 26.25V21.75C30 21.5511 30.079 21.3603 30.2197 21.2197C30.3603 21.079 30.5511 21 30.75 21ZM31.5 25.5H34.5V22.5H31.5V25.5ZM35.25 30H30.75C30.5511 30 30.3603 30.079 30.2197 30.2197C30.079 30.3603 30 30.5511 30 30.75V35.25C30 35.4489 30.079 35.6397 30.2197 35.7803C30.3603 35.921 30.5511 36 30.75 36H35.25C35.4489 36 35.6397 35.921 35.7803 35.7803C35.921 35.6397 36 35.4489 36 35.25V30.75C36 30.5511 35.921 30.3603 35.7803 30.2197C35.6397 30.079 35.4489 30 35.25 30ZM34.5 34.5H31.5V31.5H34.5V34.5Z" fill="#003B71"/>
</svg>
