<svg width="48" height="48" viewBox="0 0 48 48" fill="none" xmlns="http://www.w3.org/2000/svg">
<path d="M6 38.25C4.755 38.25 3.75 37.245 3.75 36V12C3.75 10.755 4.755 9.75 6 9.75H42C43.245 9.75 44.25 10.755 44.25 12V36C44.25 37.245 43.245 38.25 42 38.25H6Z" fill="white"/>
<path d="M42 9H6C4.35 9 3 10.35 3 12V36C3 37.65 4.35 39 6 39H42C43.65 39 45 37.65 45 36V12C45 10.35 43.65 9 42 9ZM43.5 36C43.5 36.135 43.455 36.24 43.425 36.36L31.02 23.955L43.5 15.645V36ZM6 10.5H42C42.825 10.5 43.5 11.175 43.5 12V13.845L24 26.85L4.5 13.845V12C4.5 11.175 5.175 10.5 6 10.5ZM4.575 36.36C4.545 36.24 4.5 36.12 4.5 36V15.645L16.98 23.955L4.575 36.36ZM6 37.5C5.865 37.5 5.76 37.455 5.64 37.425L18.255 24.81L23.595 28.365C23.715 28.455 23.865 28.485 24.015 28.485C24.165 28.485 24.3 28.44 24.435 28.365L29.775 24.81L42.39 37.425C42.27 37.455 42.15 37.5 42.03 37.5H6Z" fill="#003B71"/>
</svg>
