<svg width="48" height="48" viewBox="0 0 48 48" fill="none" xmlns="http://www.w3.org/2000/svg">
<path d="M33 9H15V13.5H33V9Z" fill="#92CCF0"/>
<path fill-rule="evenodd" clip-rule="evenodd" d="M12 4.5H36C36.825 4.5 37.5 5.175 37.5 6V42C37.5 42.825 36.825 43.5 36 43.5H12C11.175 43.5 10.5 42.825 10.5 42V6C10.5 5.175 11.175 4.5 12 4.5ZM18.75 39C19.17 39 19.5 38.67 19.5 38.25V33.75C19.5 33.33 19.17 33 18.75 33H14.25C13.83 33 13.5 33.33 13.5 33.75V38.25C13.5 38.67 13.83 39 14.25 39H18.75ZM18.75 31.5C19.17 31.5 19.5 31.17 19.5 30.75V26.25C19.5 25.83 19.17 25.5 18.75 25.5H14.25C13.83 25.5 13.5 25.83 13.5 26.25V30.75C13.5 31.17 13.83 31.5 14.25 31.5H18.75ZM18.75 24C19.17 24 19.5 23.67 19.5 23.25V18.75C19.5 18.33 19.17 18 18.75 18H14.25C13.83 18 13.5 18.33 13.5 18.75V23.25C13.5 23.67 13.83 24 14.25 24H18.75ZM26.25 39C26.67 39 27 38.67 27 38.25V33.75C27 33.33 26.67 33 26.25 33H21.75C21.33 33 21 33.33 21 33.75V38.25C21 38.67 21.33 39 21.75 39H26.25ZM26.25 31.5C26.67 31.5 27 31.17 27 30.75V26.25C27 25.83 26.67 25.5 26.25 25.5H21.75C21.33 25.5 21 25.83 21 26.25V30.75C21 31.17 21.33 31.5 21.75 31.5H26.25ZM26.25 24C26.67 24 27 23.67 27 23.25V18.75C27 18.33 26.67 18 26.25 18H21.75C21.33 18 21 18.33 21 18.75V23.25C21 23.67 21.33 24 21.75 24H26.25ZM33.75 39C34.17 39 34.5 38.67 34.5 38.25V26.25C34.5 25.83 34.17 25.5 33.75 25.5H29.25C28.83 25.5 28.5 25.83 28.5 26.25V38.25C28.5 38.67 28.83 39 29.25 39H33.75ZM33.75 24C34.17 24 34.5 23.67 34.5 23.25V18.75C34.5 18.33 34.17 18 33.75 18H29.25C28.83 18 28.5 18.33 28.5 18.75V23.25C28.5 23.67 28.83 24 29.25 24H33.75ZM33.75 15C34.17 15 34.5 14.67 34.5 14.25V8.25C34.5 7.83 34.17 7.5 33.75 7.5H14.25C13.83 7.5 13.5 7.83 13.5 8.25V14.25C13.5 14.67 13.83 15 14.25 15H33.75ZM18 19.5H15V22.5H18V19.5ZM22.5 19.5H25.5V22.5H22.5V19.5ZM33 19.5H30V22.5H33V19.5ZM33 27H30V37.5H33V27ZM22.5 27H25.5V30H22.5V27ZM18 27H15V30H18V27ZM22.5 34.5H25.5V37.5H22.5V34.5ZM18 34.5H15V37.5H18V34.5Z" fill="white"/>
<path fill-rule="evenodd" clip-rule="evenodd" d="M12 3H36C37.65 3 39 4.35 39 6V42C39 43.65 37.65 45 36 45H12C10.35 45 9 43.65 9 42V6C9 4.35 10.35 3 12 3ZM36 43.5C36.825 43.5 37.5 42.825 37.5 42V6C37.5 5.175 36.825 4.5 36 4.5H12C11.175 4.5 10.5 5.175 10.5 6V42C10.5 42.825 11.175 43.5 12 43.5H36ZM14.25 7.5H33.75C34.17 7.5 34.5 7.83 34.5 8.25V14.25C34.5 14.67 34.17 15 33.75 15H14.25C13.83 15 13.5 14.67 13.5 14.25V8.25C13.5 7.83 13.83 7.5 14.25 7.5ZM15 13.5H33V9H15V13.5ZM33.75 25.5H29.25C28.83 25.5 28.5 25.83 28.5 26.25V38.25C28.5 38.67 28.83 39 29.25 39H33.75C34.17 39 34.5 38.67 34.5 38.25V26.25C34.5 25.83 34.17 25.5 33.75 25.5ZM33 37.5H30V27H33V37.5ZM29.25 18H33.75C34.17 18 34.5 18.33 34.5 18.75V23.25C34.5 23.67 34.17 24 33.75 24H29.25C28.83 24 28.5 23.67 28.5 23.25V18.75C28.5 18.33 28.83 18 29.25 18ZM30 22.5H33V19.5H30V22.5ZM26.25 18H21.75C21.33 18 21 18.33 21 18.75V23.25C21 23.67 21.33 24 21.75 24H26.25C26.67 24 27 23.67 27 23.25V18.75C27 18.33 26.67 18 26.25 18ZM25.5 22.5H22.5V19.5H25.5V22.5ZM14.25 18H18.75C19.17 18 19.5 18.33 19.5 18.75V23.25C19.5 23.67 19.17 24 18.75 24H14.25C13.83 24 13.5 23.67 13.5 23.25V18.75C13.5 18.33 13.83 18 14.25 18ZM15 22.5H18V19.5H15V22.5ZM26.25 25.5H21.75C21.33 25.5 21 25.83 21 26.25V30.75C21 31.17 21.33 31.5 21.75 31.5H26.25C26.67 31.5 27 31.17 27 30.75V26.25C27 25.83 26.67 25.5 26.25 25.5ZM25.5 30H22.5V27H25.5V30ZM14.25 25.5H18.75C19.17 25.5 19.5 25.83 19.5 26.25V30.75C19.5 31.17 19.17 31.5 18.75 31.5H14.25C13.83 31.5 13.5 31.17 13.5 30.75V26.25C13.5 25.83 13.83 25.5 14.25 25.5ZM15 30H18V27H15V30ZM26.25 33H21.75C21.33 33 21 33.33 21 33.75V38.25C21 38.67 21.33 39 21.75 39H26.25C26.67 39 27 38.67 27 38.25V33.75C27 33.33 26.67 33 26.25 33ZM25.5 37.5H22.5V34.5H25.5V37.5ZM14.25 33H18.75C19.17 33 19.5 33.33 19.5 33.75V38.25C19.5 38.67 19.17 39 18.75 39H14.25C13.83 39 13.5 38.67 13.5 38.25V33.75C13.5 33.33 13.83 33 14.25 33ZM15 37.5H18V34.5H15V37.5Z" fill="#003B71"/>
</svg>
