<svg width="48" height="48" viewBox="0 0 48 48" fill="none" xmlns="http://www.w3.org/2000/svg">
<path d="M38.25 28.8295C36.2458 28.8295 34.7934 26.9036 33.1046 24.6643L33.09 24.6448L33.0366 24.5737C30.8754 21.6934 28.4632 18.4787 24 18.4787C19.5488 18.4787 17.1377 21.676 14.9809 24.536L14.91 24.6301C13.215 26.8925 11.76 28.8295 9.75 28.8295C9.55109 28.8295 9.36032 28.9074 9.21967 29.0461C9.07902 29.1847 9 29.3728 9 29.5689C9 29.765 9.07902 29.953 9.21967 30.0917C9.36032 30.2303 9.55109 30.3082 9.75 30.3082C12.5018 30.3082 14.221 28.0254 16.0633 25.5793L16.11 25.5173L16.68 24.7631C16.7587 24.6633 16.8622 24.5851 16.9803 24.5359C17.0985 24.4867 17.2275 24.4682 17.355 24.4822C17.4819 24.4906 17.6042 24.5319 17.7096 24.6021C17.815 24.6722 17.8997 24.7686 17.955 24.8814C19.1351 27.5164 19.6646 30.3898 19.5 33.2656C21.0162 33.9932 22.6517 34.4489 24.33 34.6112C25.7758 34.4334 27.1836 34.0291 28.5 33.4135C28.3128 30.4928 28.8267 27.5697 30 24.8814C30.0553 24.7686 30.14 24.6722 30.2454 24.6021C30.3508 24.5319 30.4731 24.4906 30.6 24.4822C30.7275 24.4682 30.8565 24.4867 30.9747 24.5359C31.0928 24.5851 31.1963 24.6633 31.275 24.7631L31.845 25.5173L31.9183 25.613C33.7802 28.0464 35.5109 30.3082 38.25 30.3082C38.4489 30.3082 38.6397 30.2303 38.7803 30.0917C38.921 29.953 39 29.765 39 29.5689C39 29.3728 38.921 29.1847 38.7803 29.0461C38.6397 28.9074 38.4489 28.8295 38.25 28.8295Z" fill="#92CCF0"/>
<path d="M12.24 36.3265C12.735 36.4448 13.365 36.4448 14.055 36.4448C14.1456 36.5939 14.2458 36.7372 14.355 36.8736C15.7174 38.1168 17.3562 39.0283 19.14 39.5353H17.64C15.5044 39.5353 13.7057 39.404 12.7081 39.3312C12.3257 39.3032 12.0606 39.2839 11.94 39.2839C11.7442 39.2622 11.5547 39.2027 11.3823 39.1089C11.2099 39.015 11.0579 38.8886 10.935 38.7368C10.8095 38.5864 10.7154 38.4132 10.6581 38.2269C10.6007 38.0406 10.5813 37.845 10.6008 37.6513C10.6203 37.4576 10.6784 37.2696 10.7718 37.0981C10.8652 36.9266 10.992 36.7749 11.145 36.6518C11.4089 36.4431 11.7366 36.3284 12.075 36.3265H12.24Z" fill="#92CCF0"/>
<path d="M30 34.9957H33.075V34.8922C33.0761 34.6976 33.0383 34.5047 32.9637 34.3245C32.889 34.1443 32.779 33.9805 32.64 33.8423C32.5006 33.7037 32.3347 33.5937 32.1519 33.5186C31.9691 33.4436 31.773 33.4049 31.575 33.4049C31.377 33.4049 31.1809 33.4436 30.9981 33.5186C30.8154 33.5937 30.6494 33.7037 30.51 33.8423C30.3521 34.0044 30.176 34.1483 29.985 34.2711C29.7452 34.444 29.4947 34.6021 29.235 34.7443L28.62 35.0253H30V34.9957Z" fill="#92CCF0"/>
<path d="M35.0093 36.2849C35.3201 36.2528 35.6076 36.223 35.865 36.223C36.1513 36.2129 36.4345 36.2838 36.6812 36.4273C36.928 36.5708 37.1278 36.781 37.2572 37.0329C37.3866 37.2849 37.44 37.5681 37.4113 37.8491C37.3826 38.1301 37.2728 38.3971 37.095 38.6185C36.9721 38.7703 36.8201 38.8967 36.6477 38.9906C36.4753 39.0845 36.2858 39.1439 36.09 39.1656C36.0319 39.1696 35.9411 39.1769 35.8203 39.1868C35.0367 39.2505 32.9892 39.417 30.39 39.417H29.37C28.545 39.4022 27.99 39.3874 27.045 39.3283C26.1 39.2691 25.185 39.1952 24.33 39.0769C22.3195 38.83 20.3489 38.3332 18.465 37.5982H18.345C17.6308 37.3051 16.9475 36.9435 16.305 36.5187C15.9735 36.2998 15.6623 36.0524 15.375 35.7794C15.1812 35.5731 15.0512 35.3166 15 35.0401C14.9929 34.9416 14.9929 34.8428 15 34.7443C14.9983 34.4506 15.0853 34.1631 15.25 33.9183C15.4147 33.6735 15.6496 33.4827 15.9248 33.3701C16.1999 33.2574 16.5029 33.2281 16.795 33.2859C17.0871 33.3437 17.3552 33.4859 17.565 33.6944C17.7 33.8242 17.8454 33.9429 18 34.0493C18.2359 34.2322 18.4867 34.3954 18.75 34.5373C18.99 34.6704 19.23 34.7887 19.5 34.907L19.83 34.9365C20.4885 35.1887 21.1655 35.3913 21.855 35.5428C22.6714 35.7379 23.4975 35.8909 24.33 36.0012L25.38 36.1195C26.67 36.2526 27.975 36.3561 29.25 36.3561H34.155C34.4542 36.3424 34.7404 36.3127 35.0093 36.2849Z" fill="#92CCF0"/>
<path d="M24 14.5C25.6569 14.5 27 13.1569 27 11.5C27 9.84315 25.6569 8.5 24 8.5C22.3431 8.5 21 9.84315 21 11.5C21 13.1569 22.3431 14.5 24 14.5Z" fill="#92CCF0"/>
<mask id="path-2-inside-1_484_54" fill="white">
<path fill-rule="evenodd" clip-rule="evenodd" d="M39.841 31.1373C39.419 31.5532 38.8467 31.7869 38.25 31.7869C34.86 31.7869 32.73 29.1401 30.96 26.6706C30.3452 28.4908 30.051 30.4012 30.09 32.3193C30.5436 32.061 31.058 31.9244 31.5818 31.9229C32.1056 31.9215 32.6207 32.0553 33.0758 32.311C33.5309 32.5667 33.9101 32.9355 34.1758 33.3805C34.4414 33.8256 34.5842 34.3315 34.59 34.8478L35.7 34.7443C36.0943 34.7035 36.4929 34.7401 36.8728 34.8521C37.2527 34.964 37.6063 35.1491 37.9131 35.3966C38.22 35.6441 38.4741 35.9491 38.6606 36.294C38.8472 36.6389 38.9625 37.0168 39 37.406C39.0391 37.7992 38.9978 38.1963 38.8786 38.5736C38.7594 38.9509 38.5647 39.3008 38.306 39.6027C38.0473 39.9045 37.7299 40.1522 37.3725 40.3312C37.0151 40.5101 36.6249 40.6165 36.225 40.6443C35.595 40.7034 33.375 40.9105 30.375 40.9105C28.3699 40.9143 26.3664 40.8008 24.375 40.5704C22.138 40.869 19.8824 41.0123 17.625 40.9992C15.6034 40.9992 13.9048 40.8746 12.8317 40.7959C12.3362 40.7596 11.974 40.733 11.775 40.733C11.383 40.6942 11.0026 40.5796 10.6555 40.3959C10.3084 40.2121 10.0015 39.9627 9.75214 39.662C9.50282 39.3613 9.31601 39.0151 9.2024 38.6433C9.08879 38.2714 9.0506 37.8811 9.09 37.4947C9.12828 37.1047 9.24479 36.7261 9.43277 36.3808C9.62075 36.0356 9.87644 35.7306 10.185 35.4837C10.8015 34.9955 11.5885 34.767 12.375 34.8478C12.735 34.9365 13.125 34.9365 13.5 34.9365C13.4645 34.4016 13.5773 33.8671 13.8261 33.3904C14.075 32.9138 14.4506 32.5127 14.9128 32.2302C15.375 31.9477 15.9064 31.7944 16.4502 31.7866C16.994 31.7789 17.5297 31.917 18 32.1862C18.0181 30.3168 17.719 28.4576 17.115 26.6854C15.27 29.1401 13.14 31.7869 9.75 31.7869C9.15326 31.7869 8.58097 31.5532 8.15901 31.1373C7.73705 30.7213 7.5 30.1571 7.5 29.5689C7.5 28.9806 7.73705 28.4165 8.15901 28.0005C8.58097 27.5845 9.15326 27.3508 9.75 27.3508C11.01 27.3508 12.255 25.6947 13.695 23.7576L13.7313 23.7096C15.8878 20.8602 18.8092 17 24 17C29.2109 17 32.1348 20.8902 34.2788 23.7428L34.29 23.7576L34.3287 23.809C35.7092 25.6382 37.0017 27.3508 38.25 27.3508C38.8467 27.3508 39.419 27.5845 39.841 28.0005C40.2629 28.4165 40.5 28.9806 40.5 29.5689C40.5 30.1571 40.2629 30.7213 39.841 31.1373ZM32.9787 34.2653C32.904 34.0852 32.794 33.9213 32.655 33.7832C32.5116 33.6484 32.3426 33.5429 32.1577 33.4729C31.9727 33.4028 31.7755 33.3696 31.5775 33.3751C31.3795 33.3806 31.1845 33.4247 31.0038 33.5049C30.8232 33.5851 30.6604 33.6998 30.525 33.8423C30.3671 34.0044 30.191 34.1483 30 34.2711C29.7602 34.444 29.5097 34.6021 29.25 34.7443L28.65 34.9365H30.015C30.719 34.9861 31.4163 34.9692 32.0978 34.9527C32.4327 34.9446 32.7638 34.9365 33.09 34.9365V34.833C33.0911 34.6384 33.0533 34.4455 32.9787 34.2653ZM37.4364 38.1274C37.4956 37.9422 37.5172 37.7473 37.5 37.5538L37.56 37.6721C37.522 37.282 37.3285 36.9227 37.0219 36.6731C36.7153 36.4236 36.3208 36.3042 35.925 36.3413L35.893 36.3452C35.4191 36.4037 34.8457 36.4744 34.215 36.4744H29.31C28.035 36.4448 26.73 36.3709 25.44 36.2378L24.39 36.1195C23.5575 36.0092 22.7314 35.8562 21.915 35.6611C21.2255 35.5096 20.5485 35.307 19.89 35.0548L19.56 34.9217C19.29 34.8035 19.05 34.6852 18.81 34.5521C18.5467 34.4102 18.2959 34.247 18.06 34.0641C17.9054 33.9577 17.76 33.839 17.625 33.7092C17.4152 33.5007 17.1471 33.3585 16.855 33.3007C16.5629 33.2429 16.2599 33.2722 15.9848 33.3848C15.7096 33.4975 15.4747 33.6883 15.31 33.9331C15.1453 34.1778 15.0583 34.4654 15.06 34.7591C15.0529 34.8575 15.0529 34.9564 15.06 35.0548C15.1112 35.3314 15.2412 35.5879 15.435 35.7942C15.7223 36.0672 16.0335 36.3146 16.365 36.5335C17.0075 36.9583 17.6908 37.3198 18.405 37.613H18.525C20.4089 38.3479 22.3795 38.8448 24.39 39.0917C24.8732 39.1585 25.4378 39.2018 25.9728 39.2427C26.3846 39.2743 26.7788 39.3045 27.105 39.343C27.855 39.4318 28.635 39.4318 29.43 39.4318H30.45C32.5856 39.4318 34.3843 39.3005 35.3819 39.2276C35.7646 39.1997 36.0294 39.1804 36.15 39.1804C36.3458 39.1587 36.5353 39.0992 36.7077 39.0054C36.8801 38.9115 37.0321 38.785 37.155 38.6333C37.2816 38.4845 37.3772 38.3126 37.4364 38.1274ZM12.2097 39.2903C12.9933 39.354 15.0408 39.5205 17.64 39.5205L19.17 39.4761C17.3862 38.9692 15.7474 38.0576 14.385 36.8145C14.267 36.6932 14.1568 36.5648 14.055 36.43C13.7416 36.4166 13.4406 36.391 13.159 36.367C12.8206 36.3382 12.5102 36.3117 12.24 36.3117H12.075C11.7367 36.3137 11.4089 36.4283 11.145 36.637C10.992 36.7601 10.8652 36.9118 10.7718 37.0833C10.6784 37.2548 10.6203 37.4428 10.6008 37.6365C10.5813 37.8302 10.6007 38.0258 10.6581 38.2121C10.7155 38.3984 10.8096 38.5717 10.935 38.722C11.0579 38.8738 11.2099 39.0002 11.3823 39.0941C11.5547 39.188 11.7442 39.2474 11.94 39.2691C11.9981 39.2731 12.0889 39.2804 12.2097 39.2903ZM28.5 33.4135C28.3128 30.4928 28.8267 27.5697 30 24.8814C30.0589 24.7621 30.1506 24.6614 30.2646 24.5909C30.3786 24.5203 30.5104 24.4826 30.645 24.4822C30.7725 24.4682 30.9015 24.4867 31.0197 24.5359C31.1378 24.5851 31.2413 24.6633 31.32 24.7631L31.89 25.5173L31.9367 25.5793C33.779 28.0254 35.4982 30.3082 38.25 30.3082C38.4489 30.3082 38.6397 30.2303 38.7803 30.0917C38.921 29.953 39 29.765 39 29.5689C39 29.3728 38.921 29.1847 38.7803 29.0461C38.6397 28.9074 38.4489 28.8295 38.25 28.8295C36.2458 28.8295 34.7934 26.9036 33.1046 24.6643L33.09 24.6448L33.0366 24.5737C30.8754 21.6934 28.4632 18.4787 24 18.4787C19.5488 18.4787 17.1377 21.676 14.9809 24.536C14.9572 24.5674 14.9336 24.5987 14.91 24.6301C13.215 26.8925 11.76 28.8295 9.75 28.8295C9.55109 28.8295 9.36032 28.9074 9.21967 29.0461C9.07902 29.1847 9 29.3728 9 29.5689C9 29.765 9.07902 29.953 9.21967 30.0917C9.36032 30.2303 9.55109 30.3082 9.75 30.3082C12.4891 30.3082 14.2198 28.0464 16.0817 25.613C16.1061 25.5811 16.1305 25.5492 16.155 25.5173L16.725 24.7631C16.8037 24.6633 16.9072 24.5851 17.0253 24.5359C17.1435 24.4867 17.2725 24.4682 17.4 24.4822C17.5269 24.4906 17.6492 24.5319 17.7546 24.6021C17.86 24.6722 17.9447 24.7686 18 24.8814C19.1647 27.5201 19.6788 30.3933 19.5 33.2656C21.0162 33.9932 22.6517 34.4489 24.33 34.6112C25.7758 34.4334 27.1836 34.0291 28.5 33.4135Z"/>
<path d="M28.5 11.5C28.5 13.9853 26.4853 16 24 16C21.5147 16 19.5 13.9853 19.5 11.5C19.5 9.01472 21.5147 7 24 7C26.4853 7 28.5 9.01472 28.5 11.5Z"/>
</mask>
<path fill-rule="evenodd" clip-rule="evenodd" d="M39.841 31.1373C39.419 31.5532 38.8467 31.7869 38.25 31.7869C34.86 31.7869 32.73 29.1401 30.96 26.6706C30.3452 28.4908 30.051 30.4012 30.09 32.3193C30.5436 32.061 31.058 31.9244 31.5818 31.9229C32.1056 31.9215 32.6207 32.0553 33.0758 32.311C33.5309 32.5667 33.9101 32.9355 34.1758 33.3805C34.4414 33.8256 34.5842 34.3315 34.59 34.8478L35.7 34.7443C36.0943 34.7035 36.4929 34.7401 36.8728 34.8521C37.2527 34.964 37.6063 35.1491 37.9131 35.3966C38.22 35.6441 38.4741 35.9491 38.6606 36.294C38.8472 36.6389 38.9625 37.0168 39 37.406C39.0391 37.7992 38.9978 38.1963 38.8786 38.5736C38.7594 38.9509 38.5647 39.3008 38.306 39.6027C38.0473 39.9045 37.7299 40.1522 37.3725 40.3312C37.0151 40.5101 36.6249 40.6165 36.225 40.6443C35.595 40.7034 33.375 40.9105 30.375 40.9105C28.3699 40.9143 26.3664 40.8008 24.375 40.5704C22.138 40.869 19.8824 41.0123 17.625 40.9992C15.6034 40.9992 13.9048 40.8746 12.8317 40.7959C12.3362 40.7596 11.974 40.733 11.775 40.733C11.383 40.6942 11.0026 40.5796 10.6555 40.3959C10.3084 40.2121 10.0015 39.9627 9.75214 39.662C9.50282 39.3613 9.31601 39.0151 9.2024 38.6433C9.08879 38.2714 9.0506 37.8811 9.09 37.4947C9.12828 37.1047 9.24479 36.7261 9.43277 36.3808C9.62075 36.0356 9.87644 35.7306 10.185 35.4837C10.8015 34.9955 11.5885 34.767 12.375 34.8478C12.735 34.9365 13.125 34.9365 13.5 34.9365C13.4645 34.4016 13.5773 33.8671 13.8261 33.3904C14.075 32.9138 14.4506 32.5127 14.9128 32.2302C15.375 31.9477 15.9064 31.7944 16.4502 31.7866C16.994 31.7789 17.5297 31.917 18 32.1862C18.0181 30.3168 17.719 28.4576 17.115 26.6854C15.27 29.1401 13.14 31.7869 9.75 31.7869C9.15326 31.7869 8.58097 31.5532 8.15901 31.1373C7.73705 30.7213 7.5 30.1571 7.5 29.5689C7.5 28.9806 7.73705 28.4165 8.15901 28.0005C8.58097 27.5845 9.15326 27.3508 9.75 27.3508C11.01 27.3508 12.255 25.6947 13.695 23.7576L13.7313 23.7096C15.8878 20.8602 18.8092 17 24 17C29.2109 17 32.1348 20.8902 34.2788 23.7428L34.29 23.7576L34.3287 23.809C35.7092 25.6382 37.0017 27.3508 38.25 27.3508C38.8467 27.3508 39.419 27.5845 39.841 28.0005C40.2629 28.4165 40.5 28.9806 40.5 29.5689C40.5 30.1571 40.2629 30.7213 39.841 31.1373ZM32.9787 34.2653C32.904 34.0852 32.794 33.9213 32.655 33.7832C32.5116 33.6484 32.3426 33.5429 32.1577 33.4729C31.9727 33.4028 31.7755 33.3696 31.5775 33.3751C31.3795 33.3806 31.1845 33.4247 31.0038 33.5049C30.8232 33.5851 30.6604 33.6998 30.525 33.8423C30.3671 34.0044 30.191 34.1483 30 34.2711C29.7602 34.444 29.5097 34.6021 29.25 34.7443L28.65 34.9365H30.015C30.719 34.9861 31.4163 34.9692 32.0978 34.9527C32.4327 34.9446 32.7638 34.9365 33.09 34.9365V34.833C33.0911 34.6384 33.0533 34.4455 32.9787 34.2653ZM37.4364 38.1274C37.4956 37.9422 37.5172 37.7473 37.5 37.5538L37.56 37.6721C37.522 37.282 37.3285 36.9227 37.0219 36.6731C36.7153 36.4236 36.3208 36.3042 35.925 36.3413L35.893 36.3452C35.4191 36.4037 34.8457 36.4744 34.215 36.4744H29.31C28.035 36.4448 26.73 36.3709 25.44 36.2378L24.39 36.1195C23.5575 36.0092 22.7314 35.8562 21.915 35.6611C21.2255 35.5096 20.5485 35.307 19.89 35.0548L19.56 34.9217C19.29 34.8035 19.05 34.6852 18.81 34.5521C18.5467 34.4102 18.2959 34.247 18.06 34.0641C17.9054 33.9577 17.76 33.839 17.625 33.7092C17.4152 33.5007 17.1471 33.3585 16.855 33.3007C16.5629 33.2429 16.2599 33.2722 15.9848 33.3848C15.7096 33.4975 15.4747 33.6883 15.31 33.9331C15.1453 34.1778 15.0583 34.4654 15.06 34.7591C15.0529 34.8575 15.0529 34.9564 15.06 35.0548C15.1112 35.3314 15.2412 35.5879 15.435 35.7942C15.7223 36.0672 16.0335 36.3146 16.365 36.5335C17.0075 36.9583 17.6908 37.3198 18.405 37.613H18.525C20.4089 38.3479 22.3795 38.8448 24.39 39.0917C24.8732 39.1585 25.4378 39.2018 25.9728 39.2427C26.3846 39.2743 26.7788 39.3045 27.105 39.343C27.855 39.4318 28.635 39.4318 29.43 39.4318H30.45C32.5856 39.4318 34.3843 39.3005 35.3819 39.2276C35.7646 39.1997 36.0294 39.1804 36.15 39.1804C36.3458 39.1587 36.5353 39.0992 36.7077 39.0054C36.8801 38.9115 37.0321 38.785 37.155 38.6333C37.2816 38.4845 37.3772 38.3126 37.4364 38.1274ZM12.2097 39.2903C12.9933 39.354 15.0408 39.5205 17.64 39.5205L19.17 39.4761C17.3862 38.9692 15.7474 38.0576 14.385 36.8145C14.267 36.6932 14.1568 36.5648 14.055 36.43C13.7416 36.4166 13.4406 36.391 13.159 36.367C12.8206 36.3382 12.5102 36.3117 12.24 36.3117H12.075C11.7367 36.3137 11.4089 36.4283 11.145 36.637C10.992 36.7601 10.8652 36.9118 10.7718 37.0833C10.6784 37.2548 10.6203 37.4428 10.6008 37.6365C10.5813 37.8302 10.6007 38.0258 10.6581 38.2121C10.7155 38.3984 10.8096 38.5717 10.935 38.722C11.0579 38.8738 11.2099 39.0002 11.3823 39.0941C11.5547 39.188 11.7442 39.2474 11.94 39.2691C11.9981 39.2731 12.0889 39.2804 12.2097 39.2903ZM28.5 33.4135C28.3128 30.4928 28.8267 27.5697 30 24.8814C30.0589 24.7621 30.1506 24.6614 30.2646 24.5909C30.3786 24.5203 30.5104 24.4826 30.645 24.4822C30.7725 24.4682 30.9015 24.4867 31.0197 24.5359C31.1378 24.5851 31.2413 24.6633 31.32 24.7631L31.89 25.5173L31.9367 25.5793C33.779 28.0254 35.4982 30.3082 38.25 30.3082C38.4489 30.3082 38.6397 30.2303 38.7803 30.0917C38.921 29.953 39 29.765 39 29.5689C39 29.3728 38.921 29.1847 38.7803 29.0461C38.6397 28.9074 38.4489 28.8295 38.25 28.8295C36.2458 28.8295 34.7934 26.9036 33.1046 24.6643L33.09 24.6448L33.0366 24.5737C30.8754 21.6934 28.4632 18.4787 24 18.4787C19.5488 18.4787 17.1377 21.676 14.9809 24.536C14.9572 24.5674 14.9336 24.5987 14.91 24.6301C13.215 26.8925 11.76 28.8295 9.75 28.8295C9.55109 28.8295 9.36032 28.9074 9.21967 29.0461C9.07902 29.1847 9 29.3728 9 29.5689C9 29.765 9.07902 29.953 9.21967 30.0917C9.36032 30.2303 9.55109 30.3082 9.75 30.3082C12.4891 30.3082 14.2198 28.0464 16.0817 25.613C16.1061 25.5811 16.1305 25.5492 16.155 25.5173L16.725 24.7631C16.8037 24.6633 16.9072 24.5851 17.0253 24.5359C17.1435 24.4867 17.2725 24.4682 17.4 24.4822C17.5269 24.4906 17.6492 24.5319 17.7546 24.6021C17.86 24.6722 17.9447 24.7686 18 24.8814C19.1647 27.5201 19.6788 30.3933 19.5 33.2656C21.0162 33.9932 22.6517 34.4489 24.33 34.6112C25.7758 34.4334 27.1836 34.0291 28.5 33.4135Z" fill="#003B71"/>
<path fill-rule="evenodd" clip-rule="evenodd" d="M39.841 31.1373C39.419 31.5532 38.8467 31.7869 38.25 31.7869C34.86 31.7869 32.73 29.1401 30.96 26.6706C30.3452 28.4908 30.051 30.4012 30.09 32.3193C30.5436 32.061 31.058 31.9244 31.5818 31.9229C32.1056 31.9215 32.6207 32.0553 33.0758 32.311C33.5309 32.5667 33.9101 32.9355 34.1758 33.3805C34.4414 33.8256 34.5842 34.3315 34.59 34.8478L35.7 34.7443C36.0943 34.7035 36.4929 34.7401 36.8728 34.8521C37.2527 34.964 37.6063 35.1491 37.9131 35.3966C38.22 35.6441 38.4741 35.9491 38.6606 36.294C38.8472 36.6389 38.9625 37.0168 39 37.406C39.0391 37.7992 38.9978 38.1963 38.8786 38.5736C38.7594 38.9509 38.5647 39.3008 38.306 39.6027C38.0473 39.9045 37.7299 40.1522 37.3725 40.3312C37.0151 40.5101 36.6249 40.6165 36.225 40.6443C35.595 40.7034 33.375 40.9105 30.375 40.9105C28.3699 40.9143 26.3664 40.8008 24.375 40.5704C22.138 40.869 19.8824 41.0123 17.625 40.9992C15.6034 40.9992 13.9048 40.8746 12.8317 40.7959C12.3362 40.7596 11.974 40.733 11.775 40.733C11.383 40.6942 11.0026 40.5796 10.6555 40.3959C10.3084 40.2121 10.0015 39.9627 9.75214 39.662C9.50282 39.3613 9.31601 39.0151 9.2024 38.6433C9.08879 38.2714 9.0506 37.8811 9.09 37.4947C9.12828 37.1047 9.24479 36.7261 9.43277 36.3808C9.62075 36.0356 9.87644 35.7306 10.185 35.4837C10.8015 34.9955 11.5885 34.767 12.375 34.8478C12.735 34.9365 13.125 34.9365 13.5 34.9365C13.4645 34.4016 13.5773 33.8671 13.8261 33.3904C14.075 32.9138 14.4506 32.5127 14.9128 32.2302C15.375 31.9477 15.9064 31.7944 16.4502 31.7866C16.994 31.7789 17.5297 31.917 18 32.1862C18.0181 30.3168 17.719 28.4576 17.115 26.6854C15.27 29.1401 13.14 31.7869 9.75 31.7869C9.15326 31.7869 8.58097 31.5532 8.15901 31.1373C7.73705 30.7213 7.5 30.1571 7.5 29.5689C7.5 28.9806 7.73705 28.4165 8.15901 28.0005C8.58097 27.5845 9.15326 27.3508 9.75 27.3508C11.01 27.3508 12.255 25.6947 13.695 23.7576L13.7313 23.7096C15.8878 20.8602 18.8092 17 24 17C29.2109 17 32.1348 20.8902 34.2788 23.7428L34.29 23.7576L34.3287 23.809C35.7092 25.6382 37.0017 27.3508 38.25 27.3508C38.8467 27.3508 39.419 27.5845 39.841 28.0005C40.2629 28.4165 40.5 28.9806 40.5 29.5689C40.5 30.1571 40.2629 30.7213 39.841 31.1373ZM32.9787 34.2653C32.904 34.0852 32.794 33.9213 32.655 33.7832C32.5116 33.6484 32.3426 33.5429 32.1577 33.4729C31.9727 33.4028 31.7755 33.3696 31.5775 33.3751C31.3795 33.3806 31.1845 33.4247 31.0038 33.5049C30.8232 33.5851 30.6604 33.6998 30.525 33.8423C30.3671 34.0044 30.191 34.1483 30 34.2711C29.7602 34.444 29.5097 34.6021 29.25 34.7443L28.65 34.9365H30.015C30.719 34.9861 31.4163 34.9692 32.0978 34.9527C32.4327 34.9446 32.7638 34.9365 33.09 34.9365V34.833C33.0911 34.6384 33.0533 34.4455 32.9787 34.2653ZM37.4364 38.1274C37.4956 37.9422 37.5172 37.7473 37.5 37.5538L37.56 37.6721C37.522 37.282 37.3285 36.9227 37.0219 36.6731C36.7153 36.4236 36.3208 36.3042 35.925 36.3413L35.893 36.3452C35.4191 36.4037 34.8457 36.4744 34.215 36.4744H29.31C28.035 36.4448 26.73 36.3709 25.44 36.2378L24.39 36.1195C23.5575 36.0092 22.7314 35.8562 21.915 35.6611C21.2255 35.5096 20.5485 35.307 19.89 35.0548L19.56 34.9217C19.29 34.8035 19.05 34.6852 18.81 34.5521C18.5467 34.4102 18.2959 34.247 18.06 34.0641C17.9054 33.9577 17.76 33.839 17.625 33.7092C17.4152 33.5007 17.1471 33.3585 16.855 33.3007C16.5629 33.2429 16.2599 33.2722 15.9848 33.3848C15.7096 33.4975 15.4747 33.6883 15.31 33.9331C15.1453 34.1778 15.0583 34.4654 15.06 34.7591C15.0529 34.8575 15.0529 34.9564 15.06 35.0548C15.1112 35.3314 15.2412 35.5879 15.435 35.7942C15.7223 36.0672 16.0335 36.3146 16.365 36.5335C17.0075 36.9583 17.6908 37.3198 18.405 37.613H18.525C20.4089 38.3479 22.3795 38.8448 24.39 39.0917C24.8732 39.1585 25.4378 39.2018 25.9728 39.2427C26.3846 39.2743 26.7788 39.3045 27.105 39.343C27.855 39.4318 28.635 39.4318 29.43 39.4318H30.45C32.5856 39.4318 34.3843 39.3005 35.3819 39.2276C35.7646 39.1997 36.0294 39.1804 36.15 39.1804C36.3458 39.1587 36.5353 39.0992 36.7077 39.0054C36.8801 38.9115 37.0321 38.785 37.155 38.6333C37.2816 38.4845 37.3772 38.3126 37.4364 38.1274ZM12.2097 39.2903C12.9933 39.354 15.0408 39.5205 17.64 39.5205L19.17 39.4761C17.3862 38.9692 15.7474 38.0576 14.385 36.8145C14.267 36.6932 14.1568 36.5648 14.055 36.43C13.7416 36.4166 13.4406 36.391 13.159 36.367C12.8206 36.3382 12.5102 36.3117 12.24 36.3117H12.075C11.7367 36.3137 11.4089 36.4283 11.145 36.637C10.992 36.7601 10.8652 36.9118 10.7718 37.0833C10.6784 37.2548 10.6203 37.4428 10.6008 37.6365C10.5813 37.8302 10.6007 38.0258 10.6581 38.2121C10.7155 38.3984 10.8096 38.5717 10.935 38.722C11.0579 38.8738 11.2099 39.0002 11.3823 39.0941C11.5547 39.188 11.7442 39.2474 11.94 39.2691C11.9981 39.2731 12.0889 39.2804 12.2097 39.2903ZM28.5 33.4135C28.3128 30.4928 28.8267 27.5697 30 24.8814C30.0589 24.7621 30.1506 24.6614 30.2646 24.5909C30.3786 24.5203 30.5104 24.4826 30.645 24.4822C30.7725 24.4682 30.9015 24.4867 31.0197 24.5359C31.1378 24.5851 31.2413 24.6633 31.32 24.7631L31.89 25.5173L31.9367 25.5793C33.779 28.0254 35.4982 30.3082 38.25 30.3082C38.4489 30.3082 38.6397 30.2303 38.7803 30.0917C38.921 29.953 39 29.765 39 29.5689C39 29.3728 38.921 29.1847 38.7803 29.0461C38.6397 28.9074 38.4489 28.8295 38.25 28.8295C36.2458 28.8295 34.7934 26.9036 33.1046 24.6643L33.09 24.6448L33.0366 24.5737C30.8754 21.6934 28.4632 18.4787 24 18.4787C19.5488 18.4787 17.1377 21.676 14.9809 24.536C14.9572 24.5674 14.9336 24.5987 14.91 24.6301C13.215 26.8925 11.76 28.8295 9.75 28.8295C9.55109 28.8295 9.36032 28.9074 9.21967 29.0461C9.07902 29.1847 9 29.3728 9 29.5689C9 29.765 9.07902 29.953 9.21967 30.0917C9.36032 30.2303 9.55109 30.3082 9.75 30.3082C12.4891 30.3082 14.2198 28.0464 16.0817 25.613C16.1061 25.5811 16.1305 25.5492 16.155 25.5173L16.725 24.7631C16.8037 24.6633 16.9072 24.5851 17.0253 24.5359C17.1435 24.4867 17.2725 24.4682 17.4 24.4822C17.5269 24.4906 17.6492 24.5319 17.7546 24.6021C17.86 24.6722 17.9447 24.7686 18 24.8814C19.1647 27.5201 19.6788 30.3933 19.5 33.2656C21.0162 33.9932 22.6517 34.4489 24.33 34.6112C25.7758 34.4334 27.1836 34.0291 28.5 33.4135Z" stroke="#003B71" stroke-width="3" mask="url(#path-2-inside-1_484_54)"/>
<path d="M28.5 11.5C28.5 13.9853 26.4853 16 24 16C21.5147 16 19.5 13.9853 19.5 11.5C19.5 9.01472 21.5147 7 24 7C26.4853 7 28.5 9.01472 28.5 11.5Z" stroke="#003B71" stroke-width="3" mask="url(#path-2-inside-1_484_54)"/>
</svg>
