<svg width="16" height="15" viewBox="0 0 16 15" fill="none" xmlns="http://www.w3.org/2000/svg">
<path fill-rule="evenodd" clip-rule="evenodd" d="M2.16667 0C1.24619 0 0.5 0.746192 0.5 1.66667V13.3333C0.5 14.2538 1.24619 15 2.16667 15H13.8333C14.7538 15 15.5 14.2538 15.5 13.3333V9.16667C15.5 8.70643 15.1269 8.33333 14.6667 8.33333C14.2064 8.33333 13.8333 8.70643 13.8333 9.16667V13.3333H2.16667V1.66667H6.33333C6.79357 1.66667 7.16667 1.29357 7.16667 0.833333C7.16667 0.373096 6.79357 0 6.33333 0H2.16667ZM14.65 0.0416611C15.1083 0.0416611 15.4833 0.416661 15.4833 0.874995L15.5 5.86666C15.5 6.32499 15.125 6.69999 14.6667 6.69999C14.2083 6.69999 13.8333 6.32499 13.8333 5.86666V2.89999L6.93333 9.77499C6.76667 9.93333 6.55833 10.0167 6.34167 10.0167C6.125 10.0167 5.91667 9.94166 5.75 9.77499C5.425 9.44999 5.425 8.92499 5.75 8.59999L12.675 1.70833L9.66667 1.69999C9.2 1.69999 8.83333 1.32499 8.83333 0.866661C8.83333 0.408328 9.20833 0.0333278 9.66667 0.0333278L14.65 0.0416611Z" fill="white"/>
</svg>
