<svg width="48" height="48" viewBox="0 0 48 48" fill="none" xmlns="http://www.w3.org/2000/svg">
<path d="M28.5091 31.995C26.2291 32.19 23.5141 30.705 20.4091 27.615C17.3041 24.51 15.8341 21.795 16.0291 19.515C16.0741 19.005 16.1941 18.6 16.3441 18.24L9.2791 11.175L8.7391 11.7C8.7391 11.715 7.3891 13.095 7.4941 14.805C7.4941 14.94 7.5841 23.175 16.1641 31.845C24.8341 40.425 33.0841 40.53 33.1591 40.53C34.9291 40.635 36.3091 39.3 36.3241 39.285L36.8491 38.76L29.7841 31.695C29.4391 31.83 29.0191 31.95 28.5091 31.995Z" fill="white"/>
<path d="M19.3441 14.8801L17.3191 16.9201C17.3041 16.9351 17.2741 16.9651 17.2141 16.9951L10.3291 10.1101L12.4441 7.99505C12.6991 7.75505 13.6141 7.02005 14.5591 7.98005C14.5741 7.99505 14.5741 7.99505 14.5741 7.99505L19.8541 13.2751C19.9441 13.3651 20.3191 13.9051 19.3441 14.8801Z" fill="#92CCF0"/>
<path d="M33.1441 28.665C34.0508 27.7441 34.5829 28.041 34.715 28.1147C34.7227 28.119 34.7291 28.1225 34.7341 28.125L40.0591 33.45C41.0041 34.41 40.2841 35.31 40.0441 35.565L37.9291 37.68L31.0291 30.78L33.1441 28.665Z" fill="#92CCF0"/>
<path d="M41.0414 32.3564L35.7394 27.0521C35.1852 26.4977 33.6875 25.9134 32.04 27.5916L30.3924 29.2398L29.8533 29.7942C29.8383 29.8241 29.374 30.4085 28.3106 30.4834C27.0674 30.5583 24.8657 29.944 21.4659 26.5277C18.051 23.1114 17.4369 20.9238 17.5118 19.6801C17.5867 18.6163 18.1708 18.1518 18.2756 18.0619L18.7549 17.5974L20.4024 15.9492C22.0799 14.286 21.4808 12.8026 20.9416 12.2332L15.6246 6.92899C15.0255 6.34463 14.3366 6 13.5877 6C12.3595 6 11.4908 6.82411 11.386 6.92899L9.27417 9.0417L8.21077 10.1055L7.68656 10.645C7.61167 10.7049 5.8593 12.488 6.00908 14.8404C6.00908 15.2 6.06899 23.7407 15.1004 32.8808L15.6396 32.3564L15.1154 32.8958C24.2517 41.931 32.7888 41.9909 33.1034 41.9909C35.4998 42.1408 37.2821 40.3877 37.357 40.3127L41.0714 36.5968C41.1613 36.5069 42 35.6228 42 34.3942C41.97 33.645 41.6256 33.0157 41.0414 32.3564ZM30.9766 30.7681L31.4409 30.3036L33.0884 28.6554C34.0469 27.6815 34.6011 28.0561 34.676 28.131L39.978 33.4352C39.978 33.4352 39.978 33.4352 39.993 33.4502C40.9516 34.4092 40.2177 35.3082 39.978 35.5629L37.8662 37.6756L30.9766 30.7681ZM12.4344 7.99284C12.689 7.7531 13.6027 7.01889 14.5612 7.97785C14.5612 7.97785 14.5612 7.97785 14.5762 7.99284L19.8483 13.2671C19.9232 13.372 20.3126 13.9114 19.3241 14.8704L17.3021 16.9082C17.2871 16.9231 17.2572 16.9531 17.2122 16.9831L10.3226 10.1055L12.4344 7.99284ZM36.2786 39.2489C36.2636 39.2639 34.8857 40.5974 33.1183 40.4925C33.0435 40.4925 24.8058 40.4026 16.1488 31.832C7.59669 23.1714 7.50683 14.9303 7.49185 14.7955C7.38701 13.0873 8.73498 11.7088 8.73498 11.6938L9.25919 11.1694L16.3136 18.2267C16.1638 18.5713 16.044 18.9909 15.9991 19.5003C15.8044 21.7779 17.2871 24.4899 20.3725 27.5916C23.4728 30.6932 26.1838 32.1616 28.4603 31.9668C28.9696 31.9219 29.3889 31.802 29.7334 31.6521L36.7878 38.7095L36.2786 39.2489Z" fill="#003B71"/>
</svg>
