<svg width="48" height="48" viewBox="0 0 48 48" fill="none" xmlns="http://www.w3.org/2000/svg">
<path d="M35.25 43.785L12.75 43.77V11.25H35.25V43.785Z" fill="white"/>
<path d="M9.75 11.25H38.25V6C38.25 5.40326 38.0129 4.83097 37.591 4.40901C37.169 3.98705 36.5967 3.75 36 3.75H12C11.4033 3.75 10.831 3.98705 10.409 4.40901C9.98705 4.83097 9.75 5.40326 9.75 6V11.25Z" fill="#92CCF0"/>
<path fill-rule="evenodd" clip-rule="evenodd" d="M36 3H12C11.2044 3 10.4413 3.31607 9.87868 3.87868C9.31607 4.44129 9 5.20435 9 6V11.25C9 11.4489 9.07902 11.6397 9.21967 11.7803C9.36032 11.921 9.55109 12 9.75 12H12V42C12 42.7957 12.3161 43.5587 12.8787 44.1213C13.4413 44.6839 14.2044 45 15 45H33C33.7956 45 34.5587 44.6839 35.1213 44.1213C35.6839 43.5587 36 42.7957 36 42V12H38.25C38.4489 12 38.6397 11.921 38.7803 11.7803C38.921 11.6397 39 11.4489 39 11.25V6C39 5.20435 38.6839 4.44129 38.1213 3.87868C37.5587 3.31607 36.7956 3 36 3ZM34.5 42C34.5 42.3978 34.342 42.7794 34.0607 43.0607C33.7794 43.342 33.3978 43.5 33 43.5H15C14.6022 43.5 14.2206 43.342 13.9393 43.0607C13.658 42.7794 13.5 42.3978 13.5 42V12H34.5V42ZM37.5 10.5H33V6.75C33 6.55109 32.921 6.36032 32.7803 6.21967C32.6397 6.07902 32.4489 6 32.25 6C32.0511 6 31.8603 6.07902 31.7197 6.21967C31.579 6.36032 31.5 6.55109 31.5 6.75V10.5H30V6.75C30 6.55109 29.921 6.36032 29.7803 6.21967C29.6397 6.07902 29.4489 6 29.25 6C29.0511 6 28.8603 6.07902 28.7197 6.21967C28.579 6.36032 28.5 6.55109 28.5 6.75V10.5H27V6.75C27 6.55109 26.921 6.36032 26.7803 6.21967C26.6397 6.07902 26.4489 6 26.25 6C26.0511 6 25.8603 6.07902 25.7197 6.21967C25.579 6.36032 25.5 6.55109 25.5 6.75V10.5H10.5V6C10.5 5.60218 10.658 5.22064 10.9393 4.93934C11.2206 4.65804 11.6022 4.5 12 4.5H36C36.3978 4.5 36.7794 4.65804 37.0607 4.93934C37.342 5.22064 37.5 5.60218 37.5 6V10.5ZM30.75 19.5H17.25C17.0511 19.5 16.8603 19.579 16.7197 19.7197C16.579 19.8603 16.5 20.0511 16.5 20.25V35.25C16.5 35.4489 16.579 35.6397 16.7197 35.7803C16.8603 35.921 17.0511 36 17.25 36H30.75C30.9489 36 31.1397 35.921 31.2803 35.7803C31.421 35.6397 31.5 35.4489 31.5 35.25V20.25C31.5 20.0511 31.421 19.8603 31.2803 19.7197C31.1397 19.579 30.9489 19.5 30.75 19.5ZM30 34.5H18V21H30V34.5ZM28.2803 25.2803C28.421 25.1397 28.5 24.9489 28.5 24.75C28.5 24.5511 28.421 24.3603 28.2803 24.2197C28.1397 24.079 27.9489 24 27.75 24H20.25C20.0511 24 19.8603 24.079 19.7197 24.2197C19.579 24.3603 19.5 24.5511 19.5 24.75C19.5 24.9489 19.579 25.1397 19.7197 25.2803C19.8603 25.421 20.0511 25.5 20.25 25.5H27.75C27.9489 25.5 28.1397 25.421 28.2803 25.2803ZM28.5 27.75C28.5 27.9489 28.421 28.1397 28.2803 28.2803C28.1397 28.421 27.9489 28.5 27.75 28.5H20.25C20.0511 28.5 19.8603 28.421 19.7197 28.2803C19.579 28.1397 19.5 27.9489 19.5 27.75C19.5 27.5511 19.579 27.3603 19.7197 27.2197C19.8603 27.079 20.0511 27 20.25 27H27.75C27.9489 27 28.1397 27.079 28.2803 27.2197C28.421 27.3603 28.5 27.5511 28.5 27.75ZM28.2803 31.2803C28.421 31.1397 28.5 30.9489 28.5 30.75C28.5 30.5511 28.421 30.3603 28.2803 30.2197C28.1397 30.079 27.9489 30 27.75 30H20.25C20.0511 30 19.8603 30.079 19.7197 30.2197C19.579 30.3603 19.5 30.5511 19.5 30.75C19.5 30.9489 19.579 31.1397 19.7197 31.2803C19.8603 31.421 20.0511 31.5 20.25 31.5H27.75C27.9489 31.5 28.1397 31.421 28.2803 31.2803Z" fill="#003B71"/>
</svg>
