<svg width="48" height="48" viewBox="0 0 48 48" fill="none" xmlns="http://www.w3.org/2000/svg">
<path fill-rule="evenodd" clip-rule="evenodd" d="M24.7588 11.9378C26.8871 11.5807 28.5088 9.72975 28.5088 7.5C28.5088 5.01472 26.4941 3 24.0088 3C21.5235 3 19.5088 5.01472 19.5088 7.5C19.5088 9.72975 21.1305 11.5807 23.2588 11.9378V18.0464C21.6509 18.2469 20.2407 19.0836 19.2878 20.2966L13.1925 16.6382C13.391 16.1306 13.5 15.578 13.5 15C13.5 12.5147 11.4853 10.5 9 10.5C6.51472 10.5 4.5 12.5147 4.5 15C4.5 17.4853 6.51472 19.5 9 19.5C10.3689 19.5 11.5951 18.8887 12.4204 17.9243L18.5157 21.5826C18.1897 22.3222 18.0088 23.1399 18.0088 24C18.0088 24.8599 18.1897 25.6776 18.5155 26.417L12.4202 30.0754C11.5948 29.1111 10.3688 28.5 9 28.5C6.51472 28.5 4.5 30.5147 4.5 33C4.5 35.4853 6.51472 37.5 9 37.5C11.4853 37.5 13.5 35.4853 13.5 33C13.5 32.4219 13.391 31.8692 13.1924 31.3614L19.2876 27.7031C20.2404 28.9163 21.6508 29.7531 23.2588 29.9536V36.0622C21.1305 36.4193 19.5088 38.2703 19.5088 40.5C19.5088 42.9853 21.5235 45 24.0088 45C26.4941 45 28.5088 42.9853 28.5088 40.5C28.5088 38.2703 26.8871 36.4193 24.7588 36.0622V29.9536C26.3636 29.7535 27.7716 28.9196 28.7244 27.7103L34.8076 31.3614C34.609 31.8692 34.5 32.4219 34.5 33C34.5 35.4853 36.5147 37.5 39 37.5C41.4853 37.5 43.5 35.4853 43.5 33C43.5 30.5147 41.4853 28.5 39 28.5C37.6312 28.5 36.4052 29.1111 35.5798 30.0754L29.4984 26.4254C29.8265 25.6837 30.0088 24.8632 30.0088 24C30.0088 23.1368 29.8265 22.3162 29.4983 21.5745L35.5797 17.9245C36.4051 18.8888 37.6312 19.5 39 19.5C41.4853 19.5 43.5 17.4853 43.5 15C43.5 12.5147 41.4853 10.5 39 10.5C36.5147 10.5 34.5 12.5147 34.5 15C34.5 15.5781 34.609 16.1307 34.8076 16.6385L28.7243 20.2896C27.7715 19.0804 26.3636 18.2465 24.7588 18.0464V11.9378ZM27.0088 7.5C27.0088 9.15685 25.6656 10.5 24.0088 10.5C22.3519 10.5 21.0088 9.15685 21.0088 7.5C21.0088 5.84315 22.3519 4.5 24.0088 4.5C25.6656 4.5 27.0088 5.84315 27.0088 7.5ZM12 15C12 16.6569 10.6569 18 9 18C7.34315 18 6 16.6569 6 15C6 13.3431 7.34315 12 9 12C10.6569 12 12 13.3431 12 15ZM39 18C40.6569 18 42 16.6569 42 15C42 13.3431 40.6569 12 39 12C37.3431 12 36 13.3431 36 15C36 16.6569 37.3431 18 39 18ZM24.0088 43.5C25.6656 43.5 27.0088 42.1569 27.0088 40.5C27.0088 38.8431 25.6656 37.5 24.0088 37.5C22.3519 37.5 21.0088 38.8431 21.0088 40.5C21.0088 42.1569 22.3519 43.5 24.0088 43.5ZM12 33C12 34.6569 10.6569 36 9 36C7.34315 36 6 34.6569 6 33C6 31.3431 7.34315 30 9 30C10.6569 30 12 31.3431 12 33ZM39 36C40.6569 36 42 34.6569 42 33C42 31.3431 40.6569 30 39 30C37.3431 30 36 31.3431 36 33C36 34.6569 37.3431 36 39 36ZM28.5088 24C28.5088 26.4853 26.4941 28.5 24.0088 28.5C21.5235 28.5 19.5088 26.4853 19.5088 24C19.5088 21.5147 21.5235 19.5 24.0088 19.5C26.4941 19.5 28.5088 21.5147 28.5088 24Z" fill="#003B71"/>
<path d="M27.0117 7.5C27.0117 9.15847 25.6673 10.5029 24.0088 10.5029C22.3503 10.5029 21.0059 9.15847 21.0059 7.5C21.0059 5.84153 22.3503 4.49707 24.0088 4.49707C25.6673 4.49707 27.0117 5.84153 27.0117 7.5Z" fill="white"/>
<path d="M9 18C10.6569 18 12 16.6569 12 15C12 13.3431 10.6569 12 9 12C7.34315 12 6 13.3431 6 15C6 16.6569 7.34315 18 9 18Z" fill="white"/>
<path d="M39 17.9985C40.656 17.9985 41.9985 16.656 41.9985 15C41.9985 13.344 40.656 12.0015 39 12.0015C37.344 12.0015 36.0015 13.344 36.0015 15C36.0015 16.656 37.344 17.9985 39 17.9985Z" fill="white"/>
<path d="M24.0088 43.5015C25.6665 43.5015 27.0103 42.1577 27.0103 40.5C27.0103 38.8423 25.6665 37.4985 24.0088 37.4985C22.3511 37.4985 21.0073 38.8423 21.0073 40.5C21.0073 42.1577 22.3511 43.5015 24.0088 43.5015Z" fill="white"/>
<path d="M11.9971 33C11.9971 34.6552 10.6552 35.9971 9 35.9971C7.34476 35.9971 6.00293 34.6552 6.00293 33C6.00293 31.3448 7.34476 30.0029 9 30.0029C10.6552 30.0029 11.9971 31.3448 11.9971 33Z" fill="white"/>
<path d="M39 36C40.6569 36 42 34.6569 42 33C42 31.3431 40.6569 30 39 30C37.3431 30 36 31.3431 36 33C36 34.6569 37.3431 36 39 36Z" fill="white"/>
<circle cx="24.0029" cy="23.9985" r="4.49707" fill="#92CCF0"/>
</svg>
