<svg width="144" height="145" viewBox="0 0 144 145" fill="none" xmlns="http://www.w3.org/2000/svg">
<circle cx="41.8203" cy="22.5469" r="10.0599" fill="#FD3556" fill-opacity="0.25"/>
<circle cx="41.8203" cy="86.93" r="10.0599" fill="#FD3556" fill-opacity="0.25"/>
<circle cx="23.7124" cy="24.5586" r="4.02395" fill="#FD3556" fill-opacity="0.25"/>
<circle cx="53.8917" cy="8.46292" r="4.02395" fill="#FD3556" fill-opacity="0.25"/>
<circle cx="53.8917" cy="101.014" r="4.02395" fill="#FD3556" fill-opacity="0.25"/>
<circle cx="84.0714" cy="24.5586" r="4.02395" fill="#FD3556" fill-opacity="0.25"/>
<circle cx="84.0714" cy="84.918" r="4.02395" fill="#FD3556" fill-opacity="0.25"/>
<circle cx="23.7124" cy="84.918" r="4.02395" fill="#FD3556" fill-opacity="0.25"/>
<circle cx="7.61648" cy="54.7385" r="4.02395" fill="#FD3556" fill-opacity="0.25"/>
<circle cx="104.191" cy="58.7622" r="4.02395" fill="#FD3556" fill-opacity="0.25"/>
<circle cx="21.7003" cy="42.6666" r="10.0599" fill="#FD3556" fill-opacity="0.25"/>
<circle cx="21.7003" cy="66.8104" r="10.0599" fill="#FD3556" fill-opacity="0.25"/>
<circle cx="53.8919" cy="54.7384" r="18.1078" fill="#FD3556" fill-opacity="0.25"/>
<circle cx="65.9639" cy="22.5469" r="10.0599" fill="#FD3556" fill-opacity="0.25"/>
<circle cx="65.9639" cy="86.93" r="10.0599" fill="#FD3556" fill-opacity="0.25"/>
<circle cx="86.0834" cy="42.6666" r="10.0599" fill="#FD3556" fill-opacity="0.25"/>
<circle cx="86.0834" cy="66.8104" r="10.0599" fill="#FD3556" fill-opacity="0.25"/>
<mask id="mask0" mask-type="alpha" maskUnits="userSpaceOnUse" x="55" y="56" width="50" height="50">
<path d="M104.192 80.8942C104.192 94.2284 93.3822 105.038 80.048 105.038C66.7138 105.038 55.9043 94.2284 55.9043 80.8942C55.9043 67.56 66.7138 56.7505 80.048 56.7505C93.3822 56.7505 104.192 67.56 104.192 80.8942Z" fill="#003B71"/>
</mask>
<g mask="url(#mask0)">
<path d="M104.192 80.8942C104.192 94.2284 93.3822 105.038 80.048 105.038C66.7138 105.038 55.9043 94.2284 55.9043 80.8942C55.9043 67.56 66.7138 56.7505 80.048 56.7505C93.3822 56.7505 104.192 67.56 104.192 80.8942Z" fill="white"/>
<circle cx="53.8917" cy="101.014" r="4.02395" fill="#92CCF0"/>
<circle cx="84.0714" cy="84.918" r="4.02395" fill="#92CCF0"/>
<circle cx="104.191" cy="58.7622" r="4.02395" fill="#92CCF0"/>
<circle cx="53.8919" cy="54.7384" r="18.1078" fill="#92CCF0"/>
<circle cx="65.9639" cy="86.93" r="10.0599" fill="#92CCF0"/>
<circle cx="86.0834" cy="66.8104" r="10.0599" fill="#92CCF0"/>
</g>
<path fill-rule="evenodd" clip-rule="evenodd" d="M104.192 80.894C104.192 94.2282 93.3822 105.038 80.048 105.038C66.7138 105.038 55.9043 94.2282 55.9043 80.894C55.9043 67.5598 66.7138 56.7503 80.048 56.7503C93.3822 56.7503 104.192 67.5598 104.192 80.894ZM99.7881 106.325C94.3369 110.562 87.4871 113.086 80.048 113.086C62.2691 113.086 47.8564 98.6729 47.8564 80.894C47.8564 63.1151 62.2691 48.7024 80.048 48.7024C97.8269 48.7024 112.24 63.1151 112.24 80.894C112.24 88.3331 109.716 95.1829 105.479 100.634L135.205 130.36C136.776 131.931 136.776 134.479 135.205 136.051C133.633 137.622 131.085 137.622 129.514 136.051L99.7881 106.325Z" fill="#003B71"/>
<path d="M128.092 137.473C130.449 139.83 134.27 139.83 136.628 137.473C138.985 135.116 138.985 131.294 136.628 128.937L128.092 137.473ZM99.9239 109.306L128.092 137.473L136.628 128.937L108.46 100.77L99.9239 109.306Z" fill="#003B71"/>
</svg>
