<svg width="144" height="144" viewBox="0 0 144 144" fill="none" xmlns="http://www.w3.org/2000/svg">
<g clip-path="url(#clip0)">
<circle cx="107.92" cy="21.7008" r="16.7442" transform="rotate(-20.533 107.92 21.7008)" stroke="#E9EBEE" stroke-width="7.2"/>
<path d="M94.384 15.542L121.455 27.8602" stroke="#E9EBEE" stroke-width="7.2"/>
<path d="M64.1477 33.1568L41.156 56.1486C37.2062 60.0983 30.8023 60.0983 26.8525 56.1486C22.9028 52.1988 22.9028 45.7949 26.8525 41.8451L49.8443 18.8534C53.7941 14.9036 60.1979 14.9036 64.1477 18.8534C68.0975 22.8032 68.0975 29.207 64.1477 33.1568Z" stroke="#90CEF1" stroke-width="5.78407"/>
<path d="M38.9978 30.9951L52.0039 44.0012" stroke="#90CEF1" stroke-width="5.78407"/>
<path fill-rule="evenodd" clip-rule="evenodd" d="M83.0079 122.459C84.5606 113.654 78.6809 105.257 69.8753 103.704L30.0153 96.6756C21.2097 95.1229 12.8126 101.003 11.2599 109.808C9.70726 118.614 15.5869 127.011 24.3926 128.564L64.2526 135.592C73.0582 137.145 81.4553 131.265 83.0079 122.459Z" fill="#003B71"/>
<mask id="mask0" mask-type="alpha" maskUnits="userSpaceOnUse" x="15" y="100" width="34" height="26">
<rect x="19.2178" y="100.921" width="30" height="20" transform="rotate(10 19.2178 100.921)" fill="#C4C4C4"/>
</mask>
<g mask="url(#mask0)">
<path d="M25.6429 121.472L65.5029 128.5C70.3925 129.363 75.0553 126.098 75.9174 121.208C76.7796 116.318 73.5147 111.656 68.6251 110.794L28.7651 103.765C23.8755 102.903 19.2128 106.168 18.3507 111.057C17.4885 115.947 20.7534 120.61 25.6429 121.472Z" fill="#FFA4B4"/>
</g>
<mask id="mask1" mask-type="alpha" maskUnits="userSpaceOnUse" x="47" y="106" width="33" height="26">
<rect x="50.7317" y="106.479" width="29" height="20" transform="rotate(10 50.7317 106.479)" fill="#C4C4C4"/>
</mask>
<g mask="url(#mask1)">
<path d="M25.6429 121.472L65.5029 128.5C70.3925 129.363 75.0553 126.098 75.9174 121.208C76.7796 116.318 73.5147 111.656 68.6251 110.794L28.7651 103.765C23.8755 102.903 19.2128 106.168 18.3507 111.057C17.4885 115.947 20.7534 120.61 25.6429 121.472Z" fill="#E9EBEE"/>
</g>
<path d="M49.1246 104.859L45.1488 127.408" stroke="#003B71" stroke-width="7.2"/>
<path d="M62.4254 70.9686C64.3861 59.8496 80.435 51.9769 93.7908 54.3319C107.147 56.6869 119.638 68.9914 117.575 80.6929C115.511 92.3944 99.5649 99.6846 86.2091 97.3296C72.8534 94.9746 60.4646 82.0876 62.4254 70.9686Z" fill="#FFA4B4"/>
<path d="M70.3285 67.6891C69.4357 65.4028 72.933 61.5771 77.0011 59.9882C81.0693 58.3994 86.187 58.7224 87.1267 61.1285C88.0664 63.5345 84.5222 67.2405 80.4541 68.8294C76.386 70.4182 71.2214 69.9754 70.3285 67.6891Z" fill="white"/>
</g>
<defs>
<clipPath id="clip0">
<rect width="144" height="144" fill="white"/>
</clipPath>
</defs>
</svg>
