<svg width="48" height="48" viewBox="0 0 48 48" fill="none" xmlns="http://www.w3.org/2000/svg">
<path d="M26.7313 14.2563C26.5807 14.2585 26.4329 14.2154 26.3072 14.1324C26.1814 14.0494 26.0836 13.9304 26.0263 13.791L24.8413 10.9245C24.7889 10.7852 24.7766 10.634 24.8058 10.4881C24.8349 10.3422 24.9044 10.2074 25.0063 10.099L26.2363 8.85334L24.1363 6.73719L22.8913 7.98287C22.783 8.08484 22.6483 8.15437 22.5024 8.18356C22.3566 8.21274 22.2055 8.20041 22.0663 8.14796L19.2013 6.96231C19.062 6.90506 18.9431 6.80715 18.8602 6.68133C18.7772 6.55552 18.7341 6.40763 18.7363 6.25693V4.50098H15.7363V6.25693C15.7386 6.40763 15.6954 6.55552 15.6125 6.68133C15.5296 6.80715 15.4107 6.90506 15.2713 6.96231L12.4063 8.14796C12.2671 8.20041 12.1161 8.21274 11.9702 8.18356C11.8244 8.15437 11.6896 8.08484 11.5813 7.98287L10.3363 6.73719L8.23633 8.85334L9.48133 10.099C9.58325 10.2074 9.65274 10.3422 9.68191 10.4881C9.71107 10.634 9.69875 10.7852 9.64633 10.9245L8.44633 13.791C8.3891 13.9304 8.29125 14.0494 8.1655 14.1324C8.03975 14.2154 7.89195 14.2585 7.74133 14.2563H5.98633V17.2579H7.74133C7.89195 17.2557 8.03975 17.2988 8.1655 17.3818C8.29125 17.4648 8.3891 17.5837 8.44633 17.7232L9.63133 20.5897C9.68375 20.729 9.69607 20.8802 9.66691 21.0261C9.63774 21.172 9.56825 21.3068 9.46633 21.4152L8.23633 22.6608L10.3363 24.777L11.5813 23.5313C11.6896 23.4293 11.8244 23.3598 11.9702 23.3306C12.1161 23.3014 12.2671 23.3138 12.4063 23.3662L15.2713 24.5519C15.4107 24.6091 15.5296 24.707 15.6125 24.8329C15.6954 24.9587 15.7386 25.1066 15.7363 25.2573V27.0132H18.7363V25.2573C18.7341 25.1066 18.7772 24.9587 18.8602 24.8329C18.9431 24.707 19.062 24.6091 19.2013 24.5519L22.0663 23.3662C22.2055 23.3138 22.3566 23.3014 22.5024 23.3306C22.6483 23.3598 22.783 23.4293 22.8913 23.5313L24.1363 24.777L26.2363 22.6608L24.9913 21.4152C24.8894 21.3068 24.8199 21.172 24.7908 21.0261C24.7616 20.8802 24.7739 20.729 24.8263 20.5897L26.0113 17.7232C26.0686 17.5837 26.1664 17.4648 26.2922 17.3818C26.4179 17.2988 26.5657 17.2557 26.7163 17.2579H28.4863V14.2563H26.7313ZM17.2363 21.7604C16.0496 21.7604 14.8896 21.4083 13.9029 20.7486C12.9162 20.089 12.1472 19.1514 11.6931 18.0544C11.2389 16.9575 11.1201 15.7504 11.3516 14.5859C11.5831 13.4214 12.1546 12.3517 12.9937 11.5121C13.8328 10.6726 14.9019 10.1008 16.0658 9.86918C17.2297 9.63755 18.4361 9.75643 19.5324 10.2108C20.6288 10.6652 21.5659 11.4346 22.2251 12.4219C22.8844 13.4091 23.2363 14.5698 23.2363 15.7571C23.2363 17.3493 22.6042 18.8762 21.479 20.002C20.3538 21.1279 18.8276 21.7604 17.2363 21.7604Z" fill="#92CCF0"/>
<path fill-rule="evenodd" clip-rule="evenodd" d="M17.2401 9.75C16.054 9.75 14.8946 10.1019 13.9085 10.7612C12.9223 11.4205 12.1537 12.3575 11.6998 13.4539C11.2459 14.5503 11.1272 15.7567 11.3586 16.9205C11.59 18.0844 12.1611 19.1535 12.9997 19.9926C13.8384 20.8318 14.9069 21.4032 16.0702 21.6347C17.2334 21.8662 18.4392 21.7474 19.5349 21.2933C20.6307 20.8392 21.5673 20.0701 22.2262 19.0834C22.8851 18.0967 23.2368 16.9367 23.2368 15.75C23.2368 14.1587 22.605 12.6326 21.4804 11.5074C20.3558 10.3821 18.8305 9.75 17.2401 9.75ZM17.2401 20.25C16.3505 20.25 15.481 19.9861 14.7414 19.4916C14.0018 18.9971 13.4253 18.2943 13.0849 17.4721C12.7445 16.6498 12.6554 15.745 12.8289 14.8721C13.0025 13.9992 13.4308 13.1974 14.0598 12.568C14.6888 11.9387 15.4902 11.5101 16.3626 11.3365C17.2351 11.1628 18.1394 11.2519 18.9612 11.5925C19.783 11.9331 20.4855 12.5099 20.9797 13.2499C21.4739 13.99 21.7376 14.86 21.7376 15.75C21.7376 16.9435 21.2638 18.0881 20.4203 18.932C19.5769 19.7759 18.4329 20.25 17.2401 20.25Z" fill="#003B71"/>
<path fill-rule="evenodd" clip-rule="evenodd" d="M29.2366 12.75H27.2276L26.4181 10.8L27.8423 9.39C27.9126 9.32028 27.9683 9.23733 28.0064 9.14593C28.0444 9.05454 28.064 8.95651 28.064 8.8575C28.064 8.75849 28.0444 8.66046 28.0064 8.56907C27.9683 8.47767 27.9126 8.39472 27.8423 8.325L24.739 5.145C24.6693 5.0747 24.5864 5.01891 24.4951 4.98083C24.4037 4.94275 24.3057 4.92315 24.2068 4.92315C24.1078 4.92315 24.0099 4.94275 23.9185 4.98083C23.8272 5.01891 23.7443 5.0747 23.6746 5.145L22.2653 6.57L20.2414 5.76V3.75C20.2414 3.55109 20.1625 3.36032 20.0219 3.21967C19.8813 3.07902 19.6907 3 19.4918 3H14.9943C14.7955 3 14.6048 3.07902 14.4643 3.21967C14.3237 3.36032 14.2447 3.55109 14.2447 3.75V5.76L12.2958 6.57L10.8865 5.145C10.8168 5.0747 10.7339 5.01891 10.6426 4.98083C10.5512 4.94275 10.4533 4.92315 10.3543 4.92315C10.2554 4.92315 10.1574 4.94275 10.066 4.98083C9.9747 5.01891 9.89179 5.0747 9.82211 5.145L6.64383 8.325C6.57358 8.39472 6.51781 8.47767 6.47976 8.56907C6.4417 8.66046 6.42211 8.75849 6.42211 8.8575C6.42211 8.95651 6.4417 9.05454 6.47976 9.14593C6.51781 9.23733 6.57358 9.32028 6.64383 9.39L8.06806 10.8L7.2585 12.75H5.24959C5.05079 12.75 4.86013 12.829 4.71955 12.9697C4.57897 13.1103 4.5 13.3011 4.5 13.5V18C4.5 18.1989 4.57897 18.3897 4.71955 18.5303C4.86013 18.671 5.05079 18.75 5.24959 18.75H7.2585L8.06806 20.685L6.64383 22.185C6.57358 22.2547 6.51781 22.3377 6.47976 22.4291C6.4417 22.5205 6.42211 22.6185 6.42211 22.7175C6.42211 22.8165 6.4417 22.9145 6.47976 23.0059C6.51781 23.0973 6.57358 23.1803 6.64383 23.25L9.82211 26.43C9.89179 26.5003 9.9747 26.5561 10.066 26.5942C10.1574 26.6322 10.2554 26.6518 10.3543 26.6518C10.4533 26.6518 10.5512 26.6322 10.6426 26.5942C10.7339 26.5561 10.8168 26.5003 10.8865 26.43L12.2958 25.005L14.2447 25.815V27.75C14.2447 27.9489 14.3237 28.1397 14.4643 28.2803C14.6048 28.421 14.7955 28.5 14.9943 28.5H19.4918C19.6907 28.5 19.8813 28.421 20.0219 28.2803C20.1625 28.1397 20.2414 27.9489 20.2414 27.75V25.74L22.1904 24.93L23.5996 26.355C23.6693 26.4253 23.7522 26.4811 23.8436 26.5192C23.9349 26.5572 24.0329 26.5768 24.1318 26.5768C24.2308 26.5768 24.3288 26.5572 24.4201 26.5192C24.5114 26.4811 24.5944 26.4253 24.664 26.355L27.8423 23.175C27.9126 23.1053 27.9683 23.0223 28.0064 22.9309C28.0444 22.8395 28.064 22.7415 28.064 22.6425C28.064 22.5435 28.0444 22.4455 28.0064 22.3541C27.9683 22.2627 27.9126 22.1797 27.8423 22.11L26.4181 20.61L27.2276 18.675H29.2366C29.4354 18.675 29.626 18.596 29.7666 18.4553C29.9072 18.3147 29.9861 18.1239 29.9861 17.925V13.5C29.9861 13.3011 29.9072 13.1103 29.7666 12.9697C29.626 12.829 29.4354 12.75 29.2366 12.75ZM28.487 17.25H26.7329C26.5824 17.2477 26.4346 17.2909 26.309 17.3738C26.1833 17.4568 26.0855 17.5757 26.0283 17.715L24.8439 20.58C24.7915 20.7192 24.7792 20.8703 24.8084 21.0161C24.8375 21.162 24.907 21.2967 25.0088 21.405L26.2532 22.65L24.1393 24.765L22.895 23.52C22.7867 23.4181 22.6521 23.3486 22.5063 23.3194C22.3606 23.2903 22.2096 23.3026 22.0704 23.355L19.207 24.54C19.0677 24.5972 18.9489 24.6951 18.866 24.8208C18.7831 24.9466 18.74 25.0944 18.7423 25.245V27H15.7439V25.245C15.7461 25.0944 15.703 24.9466 15.6201 24.8208C15.5372 24.6951 15.4184 24.5972 15.2791 24.54L12.4157 23.355C12.2766 23.3026 12.1256 23.2903 11.9798 23.3194C11.8341 23.3486 11.6994 23.4181 11.5911 23.52L10.3468 24.765L8.24796 22.65L9.49229 21.405C9.59415 21.2967 9.6636 21.162 9.69276 21.0161C9.72191 20.8703 9.70959 20.7192 9.6572 20.58L8.47284 17.715C8.41565 17.5757 8.31784 17.4568 8.19216 17.3738C8.06649 17.2909 7.91876 17.2477 7.76822 17.25H5.99918V14.25H7.75323C7.90377 14.2523 8.05149 14.2091 8.17717 14.1262C8.30285 14.0432 8.40065 13.9243 8.45785 13.785L9.6422 10.92C9.69459 10.7808 9.70692 10.6297 9.67776 10.4839C9.64861 10.338 9.57916 10.2033 9.47729 10.095L8.24796 8.85L10.3468 6.735L11.5911 7.98C11.6994 8.08192 11.8341 8.15141 11.9798 8.18058C12.1256 8.20975 12.2766 8.19742 12.4157 8.145L15.2791 6.96C15.4184 6.90278 15.5372 6.80492 15.6201 6.67917C15.703 6.55343 15.7461 6.40562 15.7439 6.255V4.5H18.7423V6.255C18.74 6.40562 18.7831 6.55343 18.866 6.67917C18.9489 6.80492 19.0677 6.90278 19.207 6.96L22.0704 8.145C22.2096 8.19742 22.3606 8.20975 22.5063 8.18058C22.6521 8.15141 22.7867 8.08192 22.895 7.98L24.1393 6.735L26.2382 8.85L24.9939 10.095C24.892 10.2033 24.8225 10.338 24.7934 10.4839C24.7642 10.6297 24.7766 10.7808 24.8289 10.92L26.0133 13.785C26.0705 13.9243 26.1683 14.0432 26.294 14.1262C26.4197 14.2091 26.5674 14.2523 26.7179 14.25H28.487V17.25Z" fill="#003B71"/>
<path fill-rule="evenodd" clip-rule="evenodd" d="M33.1851 30.0002C32.2956 30.0002 31.426 30.2641 30.6864 30.7586C29.9468 31.253 29.3703 31.9558 29.0299 32.7781C28.6895 33.6004 28.6004 34.5052 28.774 35.3781C28.9475 36.251 29.3759 37.0528 30.0049 37.6822C30.6339 38.3115 31.4353 38.7401 32.3077 38.9137C33.1801 39.0874 34.0845 38.9982 34.9063 38.6576C35.7281 38.317 36.4305 37.7403 36.9247 37.0002C37.4189 36.2602 37.6827 35.3902 37.6827 34.5002C37.6827 33.3067 37.2088 32.1621 36.3654 31.3182C35.5219 30.4743 34.378 30.0002 33.1851 30.0002ZM33.1851 37.5002C32.5921 37.5002 32.0124 37.3242 31.5193 36.9946C31.0262 36.6649 30.6419 36.1964 30.415 35.6482C30.1881 35.1001 30.1287 34.4969 30.2444 33.9149C30.3601 33.333 30.6456 32.7984 31.065 32.3789C31.4843 31.9593 32.0186 31.6736 32.6002 31.5578C33.1818 31.4421 33.7847 31.5015 34.3326 31.7285C34.8804 31.9556 35.3487 32.3401 35.6782 32.8335C36.0077 33.3268 36.1835 33.9068 36.1835 34.5002C36.1835 35.2958 35.8676 36.0589 35.3053 36.6215C34.743 37.1841 33.9804 37.5002 33.1851 37.5002Z" fill="#003B71"/>
<path fill-rule="evenodd" clip-rule="evenodd" d="M41.3257 35.7452L43.1247 36.7802C43.2105 36.8283 43.2857 36.8932 43.3459 36.971C43.4062 37.0488 43.4502 37.1379 43.4753 37.2331C43.5005 37.3282 43.5063 37.4274 43.4925 37.5248C43.4786 37.6222 43.4453 37.7159 43.3946 37.8002L41.1458 41.7002C41.1012 41.7875 41.0376 41.8638 40.9598 41.9235C40.882 41.9832 40.7919 42.0247 40.696 42.0452C40.6013 42.0744 40.5013 42.0828 40.403 42.0699C40.3047 42.0569 40.2103 42.0229 40.1264 41.9702L38.3123 40.9352C37.6686 41.4461 36.9507 41.8558 36.1835 42.1502V44.2502C36.1835 44.4491 36.1045 44.6399 35.964 44.7805C35.8234 44.9212 35.6327 45.0002 35.4339 45.0002H30.9364C30.7388 44.9963 30.5503 44.9161 30.4106 44.7763C30.2708 44.6364 30.1906 44.4479 30.1868 44.2502V42.1502C29.4174 41.8538 28.699 41.4388 28.0579 40.9202L26.2439 41.9702C26.1596 42.0209 26.066 42.0542 25.9687 42.0681C25.8713 42.082 25.7722 42.0762 25.6771 42.051C25.582 42.0258 25.493 41.9818 25.4152 41.9215C25.3374 41.8613 25.2726 41.786 25.2244 41.7002L22.9757 37.8002C22.8773 37.6289 22.8505 37.4257 22.901 37.2347C22.9515 37.0437 23.0753 36.8804 23.2455 36.7802L25.0445 35.7452C24.9737 35.334 24.9385 34.9174 24.9396 34.5002C24.9361 34.0729 24.9713 33.6462 25.0445 33.2252L23.2455 32.1902C23.0743 32.0872 22.9502 31.9212 22.8998 31.7277C22.8493 31.5343 22.8766 31.3288 22.9757 31.1552L25.2544 27.2852C25.3521 27.1124 25.5142 26.9853 25.7053 26.9319C25.8964 26.8785 26.1009 26.903 26.2739 27.0002L28.0579 28.0652C28.7017 27.5542 29.4195 27.1445 30.1868 26.8502V24.7502C30.1912 24.5527 30.2717 24.3646 30.4116 24.2252C30.4797 24.1545 30.5611 24.0982 30.6513 24.0596C30.7414 24.021 30.8383 24.0008 30.9364 24.0002H35.4339C35.5355 23.9979 35.6365 24.0168 35.7305 24.0556C35.8245 24.0944 35.9094 24.1523 35.9798 24.2256C36.0503 24.2989 36.1048 24.386 36.1398 24.4815C36.1749 24.577 36.1898 24.6787 36.1835 24.7802V26.8502C36.9529 27.1465 37.6712 27.5616 38.3123 28.0802L40.1264 27.0302C40.2993 26.932 40.5036 26.9051 40.696 26.9552C40.7941 26.9799 40.886 27.0247 40.966 27.0867C41.0459 27.1486 41.1123 27.2264 41.1608 27.3152L43.3796 31.2152C43.4303 31.2995 43.4636 31.3931 43.4775 31.4906C43.4913 31.588 43.4855 31.6872 43.4604 31.7823C43.4352 31.8774 43.3912 31.9665 43.331 32.0443C43.2707 32.1221 43.1955 32.187 43.1097 32.2352L41.3257 33.2702C41.3972 33.6762 41.4323 34.0879 41.4307 34.5002C41.4317 34.9174 41.3966 35.334 41.3257 35.7452ZM38.6122 39.3602L40.2313 40.3052L41.7305 37.7252L40.1114 36.8102C39.9759 36.7288 39.8696 36.6066 39.8077 36.4611C39.7457 36.3157 39.7314 36.1543 39.7666 36.0002C39.8718 35.507 39.927 35.0045 39.9315 34.5002C39.923 34.0259 39.8677 33.5536 39.7666 33.0902C39.7303 32.9344 39.7458 32.771 39.8107 32.6248C39.8756 32.4786 39.9865 32.3576 40.1264 32.2802L41.7155 31.3502L40.2163 28.7552L38.5972 29.6852C38.4579 29.7646 38.2969 29.7973 38.1377 29.7784C37.9785 29.7595 37.8295 29.69 37.7127 29.5802C36.9926 28.9023 36.1329 28.3904 35.194 28.0802C35.0423 28.0349 34.9093 27.9419 34.8147 27.8148C34.7202 27.6878 34.6692 27.5336 34.6693 27.3752V25.5002H31.671V27.2852C31.6719 27.4456 31.6215 27.602 31.5271 27.7316C31.4326 27.8612 31.2991 27.9571 31.1462 28.0052C30.2064 28.3131 29.3462 28.8254 28.6276 29.5052C28.512 29.6117 28.3658 29.6791 28.2098 29.698C28.0537 29.7168 27.8957 29.6861 27.7581 29.6102L26.1539 28.6802L24.6548 31.2752L26.2589 32.1902C26.3961 32.2699 26.5038 32.3918 26.5659 32.5378C26.6281 32.6838 26.6413 32.846 26.6037 33.0002C26.4985 33.4934 26.4432 33.9959 26.4388 34.5002C26.4433 34.969 26.4936 35.4362 26.5887 35.8952C26.6263 36.0493 26.6131 36.2116 26.5509 36.3576C26.4888 36.5036 26.3811 36.6255 26.2439 36.7052L24.6398 37.6352L26.139 40.2302L27.7581 39.3002C27.8973 39.2208 28.0584 39.1881 28.2176 39.207C28.3768 39.2259 28.5258 39.2953 28.6426 39.4052C29.3627 40.083 30.2224 40.595 31.1612 40.9052C31.3141 40.9533 31.4476 41.0492 31.542 41.1788C31.6365 41.3084 31.6869 41.4648 31.6859 41.6252V43.5002H34.6843V41.6852C34.6833 41.5248 34.7338 41.3683 34.8282 41.2388C34.9227 41.1092 35.0561 41.0133 35.209 40.9652C36.1479 40.655 37.0075 40.143 37.7277 39.4652C37.8445 39.3553 37.9934 39.2859 38.1526 39.267C38.3118 39.2481 38.4729 39.2807 38.6122 39.3602Z" fill="#003B71"/>
<path fill-rule="evenodd" clip-rule="evenodd" d="M40.2341 40.305L38.615 39.36C38.4757 39.2806 38.3147 39.2479 38.1555 39.2668C37.9963 39.2857 37.8473 39.3552 37.7305 39.465C37.0104 40.1429 36.1507 40.6548 35.2118 40.965C35.0589 41.0131 34.9255 41.109 34.831 41.2386C34.7366 41.3682 34.6862 41.5246 34.6871 41.685V43.5H31.6888V41.625C31.6897 41.4646 31.6393 41.3082 31.5449 41.1786C31.4504 41.049 31.317 40.9531 31.164 40.905C30.2252 40.5948 29.3655 40.0829 28.6454 39.405C28.5286 39.2952 28.3796 39.2257 28.2204 39.2068C28.0612 39.1879 27.9002 39.2206 27.7609 39.3L26.1418 40.23L24.6426 37.635L26.2467 36.705C26.3839 36.6253 26.4916 36.5034 26.5537 36.3574C26.6159 36.2114 26.6291 36.0492 26.5915 35.895C26.4964 35.436 26.4462 34.9688 26.4416 34.5C26.446 33.9957 26.5013 33.4932 26.6065 33C26.6441 32.8458 26.6309 32.6836 26.5687 32.5376C26.5066 32.3916 26.3989 32.2697 26.2617 32.19L24.6576 31.275L26.1568 28.68L27.7609 29.61C27.8985 29.6859 28.0565 29.7166 28.2126 29.6978C28.3686 29.6789 28.5148 29.6115 28.6304 29.505C29.349 28.8252 30.2092 28.3129 31.149 28.005C31.302 27.9569 31.4354 27.861 31.5299 27.7314C31.6243 27.6018 31.6747 27.4454 31.6738 27.285V25.5H34.6721V27.375C34.672 27.5334 34.723 27.6876 34.8176 27.8146C34.9121 27.9417 35.0451 28.0347 35.1969 28.08C36.1357 28.3902 36.9954 28.9021 37.7155 29.58C37.8323 29.6898 37.9813 29.7593 38.1405 29.7782C38.2997 29.7971 38.4607 29.7644 38.6 29.685L40.2191 28.755L41.7183 31.35L40.1292 32.28C39.9893 32.3574 39.8784 32.4784 39.8135 32.6246C39.7486 32.7708 39.7331 32.9342 39.7694 33.09C39.8705 33.5534 39.9258 34.0257 39.9343 34.5C39.9298 35.0043 39.8746 35.5068 39.7694 36C39.7342 36.1541 39.7486 36.3155 39.8105 36.461C39.8724 36.6064 39.9787 36.7286 40.1142 36.81L41.7333 37.725L40.2341 40.305ZM33.1885 39C35.6738 39 37.6885 36.9853 37.6885 34.5C37.6885 32.0147 35.6738 30 33.1885 30C30.7032 30 28.6885 32.0147 28.6885 34.5C28.6885 36.9853 30.7032 39 33.1885 39Z" fill="white"/>
</svg>
