<svg width="48" height="48" viewBox="0 0 48 48" fill="none" xmlns="http://www.w3.org/2000/svg">
<path d="M33.6961 13.399C33.6929 13.9934 33.5652 14.5806 33.321 15.1226C33.0768 15.6645 32.7217 16.1493 32.2786 16.5455C32.0826 16.3857 31.8616 16.2594 31.6244 16.1717H31.6088L31.6028 16.1705L31.5977 16.1672L31.5944 16.1621L31.5933 16.1561C29.6151 15.5486 29.0699 11.9815 29.0231 10.6419C29.0169 10.4681 28.9526 10.3013 28.8406 10.1682C28.7286 10.0352 28.5753 9.9434 28.405 9.90757C28.2348 9.87173 28.0575 9.89389 27.9014 9.97051C27.7452 10.0471 27.6192 10.1738 27.5433 10.3304C26.1103 13.1965 22.4497 12.8538 20.7051 12.2775C20.4121 12.1735 20.0999 12.135 19.7905 12.1646C19.481 12.1942 19.1818 12.2912 18.9138 12.4488C17.7128 13.5145 16.9152 14.9611 16.6551 16.5455C16.4048 16.6794 16.1742 16.8471 15.9697 17.044C15.3302 15.9191 14.9972 14.6461 15.004 13.3522C15.0108 12.0583 15.3572 10.7889 16.0084 9.67084C16.6597 8.55279 17.5931 7.6253 18.7152 6.98111C19.8374 6.33693 21.109 5.99862 22.4029 6.00001C23.5494 5.99806 24.6823 6.24821 25.7213 6.73274C26.7603 7.21726 27.6801 7.92432 28.4156 8.80384C28.4867 8.89827 28.5784 8.97536 28.6836 9.02931C28.7888 9.08327 28.9048 9.11269 29.0231 9.11537C29.6123 9.08504 30.2016 9.17225 30.7568 9.37192C31.312 9.57159 31.8219 9.87974 32.2568 10.2784C32.6917 10.6771 33.0429 11.1583 33.29 11.6941C33.5372 12.2298 33.6752 12.8094 33.6961 13.399Z" fill="#92CCF0"/>
<path d="M18.058 21.0609C17.9592 20.9593 17.8346 20.8866 17.6976 20.8505C17.3788 20.7623 17.0966 20.5745 16.8921 20.3144C16.6877 20.0544 16.5718 19.7357 16.5613 19.4051C16.5509 19.0744 16.6465 18.7491 16.8341 18.4767C17.0218 18.2043 17.2916 17.999 17.6043 17.8909C17.7302 17.8442 17.8414 17.7647 17.9263 17.6607C18.0112 17.5566 18.0667 17.4317 18.0871 17.299H18.1027C18.2701 16.032 18.8313 14.8496 19.7071 13.9188C19.7782 13.8673 19.8612 13.8346 19.9484 13.8237C20.0355 13.8128 20.124 13.8241 20.2056 13.8565C21.4443 14.3404 22.7875 14.4942 24.1036 14.3031C25.4197 14.112 26.6636 13.5824 27.7135 12.7661C28.0718 14.573 28.9441 17.0497 31.0781 17.7351L31.0937 17.7507C31.4047 17.8878 31.6691 18.1125 31.8545 18.3975C32.0398 18.6824 32.1381 19.0152 32.1373 19.3551C32.1351 19.6938 32.023 20.0227 31.818 20.2923C31.613 20.5619 31.326 20.7578 31.0002 20.8505C30.8632 20.8866 30.7387 20.9594 30.6399 21.0609C30.5411 21.1624 30.4718 21.2889 30.4394 21.4268C30.1443 22.8234 29.3781 24.0762 28.2693 24.9752C27.1605 25.8742 25.7764 26.3648 24.349 26.3648C22.9215 26.3648 21.5645 25.822 20.4286 24.9752C19.2926 24.1283 18.5536 22.8234 18.2585 21.4268C18.2261 21.2889 18.1568 21.1624 18.058 21.0609Z" fill="white"/>
<path d="M6.20296 40.6159C6.19515 40.5983 6.18755 40.5806 6.18017 40.5627C6.06211 40.2777 6.00155 39.9722 6.00196 39.6637V38.0983C6.00207 38.0381 6.0028 37.978 6.00416 37.9179C6.00608 37.8335 6.00923 37.7492 6.01361 37.6651C6.12432 35.5408 7.01856 33.5262 8.53259 32.0149C10.1492 30.4011 12.3407 29.4928 14.627 29.4888H16.1514C15.8589 29.8936 15.5701 30.3638 15.3322 30.8966C14.7322 32.2404 14.463 33.9565 15.136 36.0142C14.3712 36.4042 13.8477 37.1983 13.8477 38.1144C13.8477 39.4162 14.9049 40.4715 16.209 40.4715C17.5131 40.4715 18.5703 39.4162 18.5703 38.1144C18.5703 36.9624 17.7423 36.0034 16.648 35.798C15.9885 33.9945 16.2225 32.5805 16.7022 31.5062C17.0004 30.8385 17.3967 30.2914 17.7722 29.8515L22.9056 42.0117H8.35423C8.04521 42.0122 7.73914 41.9517 7.45357 41.8338C7.16799 41.716 6.90851 41.5431 6.69 41.3249C6.48515 41.1204 6.32007 40.88 6.20296 40.6159Z" fill="white"/>
<path d="M25.1011 42.0117H39.6497C39.9201 42.0121 40.1882 41.9659 40.4423 41.8753C40.4786 41.8624 40.5147 41.8486 40.5504 41.8338C40.8002 41.7307 41.0301 41.5854 41.2301 41.4046C41.2586 41.3788 41.2866 41.3522 41.3139 41.3249C41.5188 41.1204 41.6838 40.88 41.801 40.6159L41.816 40.5813L41.8237 40.5627C41.8991 40.3808 41.951 40.1905 41.9786 39.9964C41.9916 39.9054 41.9992 39.8135 42.0013 39.7213C42.0018 39.7021 42.002 39.6829 42.002 39.6637V38.0983C42.0017 37.9735 41.9988 37.8488 41.9932 37.7246C41.8963 35.5785 40.9995 33.5403 39.4713 32.0149C37.8547 30.4011 35.6632 29.4928 33.377 29.4888H32.3696C32.5572 29.7532 32.7367 30.0447 32.8936 30.3655C33.3903 31.3808 33.6523 32.6547 33.3954 34.2933C34.6024 34.825 35.3793 36.0926 35.2254 37.4707L35.1143 38.4647C35.3133 38.6752 35.4353 38.9589 35.4353 39.2711C35.4353 39.9201 34.9083 40.4461 34.2582 40.4461C33.6081 40.4461 33.0811 39.9201 33.0811 39.2711C33.0811 38.8546 33.2982 38.4887 33.6257 38.28L33.7346 37.3048C33.8327 36.4265 33.199 35.6351 32.3191 35.5372C31.4392 35.4392 30.6464 36.0718 30.5483 36.9501L30.4246 38.0575C30.6344 38.2697 30.7639 38.5612 30.7639 38.8829C30.7639 39.5319 30.2369 40.0579 29.5868 40.0579C28.9367 40.0579 28.4097 39.5319 28.4097 38.8829C28.4097 38.4758 28.6171 38.1171 28.9322 37.9062L29.0575 36.7842C29.226 35.2758 30.4531 34.1417 31.9173 34.0375C32.1231 32.6977 31.8976 31.7419 31.5457 31.0226C31.2385 30.3945 30.8269 29.92 30.414 29.4888H30.3845L25.1011 42.0117Z" fill="white"/>
<path d="M20.2168 31.0273C20.4117 31.1255 20.6112 31.2155 20.8146 31.297C21.8263 31.702 23.2179 31.8368 24.002 31.8368C24.786 31.8368 26.1776 31.702 27.1893 31.297C27.5399 31.1566 27.8787 30.9908 28.2031 30.8013L24.0032 40.7561L19.8009 30.8014C19.9371 30.8809 20.0757 30.9563 20.2168 31.0273Z" fill="white"/>
<path d="M16.2089 38.9301C16.6602 38.9301 17.0261 38.5648 17.0261 38.1143C17.0261 37.6637 16.6602 37.2985 16.2089 37.2985C15.7575 37.2985 15.3916 37.6637 15.3916 38.1143C15.3916 38.5648 15.7575 38.9301 16.2089 38.9301Z" fill="white"/>
<path fill-rule="evenodd" clip-rule="evenodd" d="M35.1951 13.407L35.1953 13.3764L35.1942 13.3458C35.1662 12.5573 34.9816 11.7823 34.6512 11.0658C34.3207 10.3494 33.851 9.70582 33.2694 9.17268C32.6878 8.63954 32.0059 8.22746 31.2635 7.96044C30.6532 7.74096 30.0121 7.62309 29.3656 7.6106C28.5246 6.66923 27.5003 5.90769 26.3543 5.37328C25.1166 4.79611 23.7671 4.49799 22.4015 4.50001C20.8457 4.4987 19.3168 4.90565 17.9675 5.68023C16.6176 6.45515 15.4948 7.57087 14.7113 8.91583C13.9279 10.2608 13.5112 11.7879 13.5031 13.3443C13.4949 14.9008 13.8955 16.4322 14.6647 17.7853L15.1469 18.6334C15.082 18.8997 15.0528 19.1751 15.0616 19.4524C15.0821 20.103 15.3102 20.7299 15.7125 21.2415C16.025 21.639 16.4299 21.9508 16.8893 22.1515C17.3001 23.6939 18.1759 25.1671 19.5316 26.1778C20.8723 27.1773 22.5363 27.8648 24.3485 27.8648C26.1199 27.8648 27.8375 27.2559 29.2135 26.1403C30.4792 25.1141 31.3852 23.7164 31.8073 22.15C32.2806 21.9415 32.6957 21.6156 33.0115 21.2003C33.413 20.6723 33.6324 20.0283 33.6368 19.365L33.6368 19.3585C33.6381 18.786 33.4881 18.2243 33.2034 17.7299L33.2775 17.6637C33.8769 17.1277 34.3573 16.4719 34.6877 15.7387C35.018 15.0055 35.1908 14.2111 35.1951 13.407ZM16.7729 15.9728C16.7255 16.1614 16.6858 16.3524 16.6541 16.5455C16.4038 16.6794 16.1732 16.8471 15.9687 17.044C15.8455 16.8272 15.7336 16.6048 15.6333 16.3779C15.5224 16.1268 15.4257 15.87 15.3435 15.6088L15.3293 15.5632C15.11 14.85 14.9991 14.1046 15.003 13.3522C15.0098 12.0583 15.3562 10.7889 16.0075 9.67084C16.6587 8.55279 17.5921 7.6253 18.7143 6.98111C19.8364 6.33693 21.108 5.99862 22.4019 6.00001C23.5484 5.99806 24.6813 6.24821 25.7203 6.73274C26.5947 7.1405 27.3847 7.70585 28.0514 8.39897C28.1769 8.52946 28.2981 8.66449 28.4146 8.80384C28.4663 8.87241 28.5287 8.93184 28.5994 8.97991C28.626 8.99803 28.6538 9.01454 28.6826 9.02931C28.7878 9.08327 28.9039 9.11269 29.0221 9.11537C29.335 9.09926 29.6479 9.1163 29.9558 9.16573C30.2276 9.20938 30.4955 9.27828 30.7558 9.37192C31.311 9.57159 31.8209 9.87974 32.2558 10.2784C32.6907 10.6771 33.042 11.1583 33.2891 11.6941C33.5362 12.2298 33.6742 12.8094 33.6951 13.399C33.692 13.9934 33.5642 14.5806 33.32 15.1226C33.2832 15.2044 33.2438 15.2848 33.202 15.3639C33.1751 15.4148 33.1471 15.4652 33.1182 15.5149C33.0889 15.5652 33.0586 15.6148 33.0274 15.6638C32.9696 15.7542 32.9086 15.8424 32.8442 15.9281L32.8388 15.9353C32.6725 16.1559 32.4847 16.3604 32.2776 16.5455C32.0817 16.3857 31.8606 16.2594 31.6234 16.1717H31.6078L31.6018 16.1705L31.5968 16.1672L31.5934 16.1621L31.5923 16.1561C29.6141 15.5486 29.0689 11.9815 29.0222 10.6419L29.0208 10.6157C29.0169 10.5602 29.0071 10.5056 28.9918 10.4527C28.9616 10.349 28.9101 10.2519 28.8396 10.1682C28.7276 10.0352 28.5743 9.9434 28.4041 9.90757C28.35 9.8962 28.2953 9.89066 28.2408 9.89086C28.1234 9.89128 28.007 9.91821 27.9004 9.97051C27.809 10.0153 27.728 10.0773 27.6613 10.1523C27.614 10.2056 27.5738 10.2654 27.5424 10.3304C26.1093 13.1965 22.4488 12.8538 20.7042 12.2775C20.4112 12.1735 20.099 12.135 19.7895 12.1646C19.48 12.1942 19.1808 12.2912 18.9128 12.4488C17.9759 13.2801 17.2844 14.3433 16.9022 15.5229C16.8726 15.6143 16.8449 15.7063 16.819 15.799H16.7996L16.7729 15.9728ZM16.8336 18.4767C17.0213 18.2043 17.2911 17.999 17.6038 17.8909C17.7297 17.8442 17.8409 17.7648 17.9258 17.6607C18.0107 17.5566 18.0662 17.4317 18.0867 17.299H18.1022C18.2696 16.032 18.8308 14.8496 19.7066 13.9188C19.7778 13.8673 19.8607 13.8346 19.9479 13.8237C20.035 13.8128 20.1235 13.8241 20.2051 13.8565C21.4438 14.3404 22.787 14.4943 24.1031 14.3031C24.8905 14.1888 25.652 13.9533 26.3616 13.6077C26.8381 13.3757 27.2912 13.094 27.713 12.7661C27.8091 13.2509 27.9422 13.7838 28.1268 14.3174C28.6301 15.7729 29.5161 17.2336 31.0776 17.7351L31.0932 17.7507C31.4043 17.8878 31.6686 18.1125 31.854 18.3975C32.0393 18.6824 32.1376 19.0152 32.1368 19.3551C32.1346 19.6938 32.0225 20.0227 31.8175 20.2923C31.6125 20.5619 31.3255 20.7578 30.9997 20.8505C30.8627 20.8866 30.7382 20.9594 30.6394 21.0609C30.5406 21.1624 30.4713 21.2889 30.439 21.4268C30.1438 22.8234 29.3777 24.0762 28.2688 24.9752C27.16 25.8742 25.7759 26.3648 24.3485 26.3648C22.921 26.3648 21.5641 25.822 20.4281 24.9752C19.2921 24.1283 18.5531 22.8234 18.258 21.4268C18.2256 21.2889 18.1563 21.1624 18.0575 21.0609C17.9587 20.9593 17.8341 20.8866 17.6971 20.8505C17.3783 20.7623 17.0961 20.5745 16.8917 20.3144C16.6872 20.0544 16.5713 19.7357 16.5608 19.4051C16.5504 19.0745 16.646 18.7491 16.8336 18.4767Z" fill="#003B71"/>
<path fill-rule="evenodd" clip-rule="evenodd" d="M18.6538 27.9823C18.2595 27.9791 17.8683 27.9777 17.4781 27.9775L17.4735 27.973L17.4692 27.9775C16.974 27.9771 16.4793 27.9785 15.9829 27.9799L15.9809 27.9799C15.5323 27.9811 15.0814 27.9824 14.6251 27.9824L14.6224 27.9824C12.0053 27.987 9.35664 28.9037 7.44683 30.9703C5.56401 32.8619 4.50471 35.4192 4.5 38.0866V39.6538C4.49949 40.1588 4.59872 40.659 4.79203 41.1258C4.98548 41.5929 5.26936 42.0172 5.6274 42.3746C5.98543 42.732 6.41059 43.0154 6.87853 43.2085C7.38066 43.4157 8.01729 43.5 8.35229 43.5H39.6477C40.0184 43.5 40.6256 43.4132 41.1215 43.2085C41.5895 43.0154 42.0146 42.732 42.3726 42.3746C42.7307 42.0173 43.0145 41.5929 43.208 41.1258C43.4033 40.6541 43.5 40.1425 43.5 39.6546V38.0893C43.5 35.3763 42.4241 32.8378 40.53 30.9471C38.6327 29.0532 36.0608 27.9871 33.3776 27.9824C32.911 27.9824 32.4489 27.9817 31.988 27.981L31.9844 27.981C31.6678 27.9805 31.3518 27.98 31.0353 27.9797L31.0288 27.973L31.0218 27.9797C30.4264 27.9793 29.8294 27.9796 29.2236 27.9824L28.7805 28.4453C28.1755 29.0774 27.4418 29.5728 26.6289 29.8982C25.8688 30.2026 24.693 30.3305 24 30.3305C23.307 30.3305 22.1312 30.2026 21.3711 29.8982C21.0433 29.767 20.6313 29.5112 20.1859 29.1848C19.8789 28.9598 19.6233 28.7534 19.3875 28.563C19.2756 28.4726 19.1682 28.3859 19.0619 28.3025L18.6538 27.9823ZM14.625 29.4884H16.1496C15.857 29.8933 15.5682 30.3636 15.3302 30.8965C14.7302 32.2402 14.4611 33.9564 15.134 36.014C14.3693 36.4041 13.8457 37.1981 13.8457 38.1142C13.8457 39.416 14.9029 40.4713 16.207 40.4713C17.5112 40.4713 18.5684 39.416 18.5684 38.1142C18.5684 36.9622 17.7404 36.0032 16.646 35.7978C15.9865 33.9943 16.2206 32.5803 16.7003 31.506C16.9984 30.8384 17.3948 30.2912 17.7703 29.8513L22.9036 42.0116H8.35228C8.04326 42.012 7.7372 41.9515 7.45162 41.8337C7.16604 41.7158 6.90656 41.5429 6.68805 41.3248C6.46954 41.1067 6.29629 40.8476 6.17823 40.5626C6.06016 40.2775 5.9996 39.972 6.00001 39.6635V38.0982C6.00012 38.038 6.00085 37.9778 6.00222 37.9177C6.05248 35.7009 6.95662 33.5857 8.53065 32.0145C10.1473 30.4008 12.3388 29.4924 14.625 29.4884ZM30.4121 29.4886H30.3825L25.0992 42.0116H39.6477C39.9568 42.012 40.2628 41.9515 40.5484 41.8337C40.834 41.7158 41.0935 41.5429 41.312 41.3248C41.5305 41.1067 41.7037 40.8476 41.8218 40.5626C41.8972 40.3806 41.9491 40.1903 41.9767 39.9962C41.9896 39.9052 41.9972 39.8134 41.9994 39.7211C41.9996 39.7107 41.9998 39.7002 41.9999 39.6897C42 39.6809 42 39.6721 42 39.6633V38.098C41.9998 37.9553 41.996 37.8131 41.9887 37.6713C41.8795 35.5446 40.985 33.5274 39.4694 32.0145C37.8527 30.4008 35.6613 29.4924 33.375 29.4884L32.3676 29.4886C32.5552 29.753 32.7347 30.0445 32.8917 30.3654C33.3883 31.3807 33.6504 32.6546 33.3934 34.2931C34.6004 34.8248 35.3774 36.0924 35.2234 37.4706L35.1124 38.4646C35.3114 38.675 35.4333 38.9588 35.4333 39.271C35.4333 39.9199 34.9063 40.446 34.2562 40.446C33.6061 40.446 33.0791 39.9199 33.0791 39.271C33.0791 38.8544 33.2963 38.4885 33.6237 38.2798L33.7326 37.3046C33.8308 36.4263 33.197 35.6349 32.3171 35.537C31.4372 35.4391 30.6444 36.0717 30.5463 36.95L30.4226 38.0573C30.6324 38.2695 30.762 38.561 30.762 38.8828C30.762 39.5317 30.2349 40.0578 29.5848 40.0578C28.9347 40.0578 28.4077 39.5317 28.4077 38.8828C28.4077 38.4757 28.6151 38.1169 28.9302 37.9061L29.0555 36.7841C29.224 35.2756 30.4511 34.1416 31.9153 34.0374C32.1211 32.6975 31.8957 31.7417 31.5438 31.0224C31.2365 30.3943 30.8249 29.9198 30.4121 29.4886ZM19.799 30.8013L24.0013 40.756L28.2013 30.8009C28.0907 30.8655 27.9785 30.9273 27.8646 30.9864C27.6445 31.1005 27.4185 31.2041 27.1873 31.2966C26.1757 31.7017 24.7841 31.8365 24 31.8365C23.2159 31.8365 21.8243 31.7017 20.8127 31.2966C20.6092 31.2152 20.4098 31.1254 20.2148 31.0271C20.0738 30.9561 19.9351 30.8808 19.799 30.8013ZM17.0242 38.1141C17.0242 38.5647 16.6583 38.9299 16.2069 38.9299C15.7556 38.9299 15.3897 38.5647 15.3897 38.1141C15.3897 37.6636 15.7556 37.2983 16.2069 37.2983C16.6583 37.2983 17.0242 37.6636 17.0242 38.1141Z" fill="#003B71"/>
</svg>
