<svg width="48" height="48" viewBox="0 0 48 48" fill="none" xmlns="http://www.w3.org/2000/svg">
<path fill-rule="evenodd" clip-rule="evenodd" d="M18.5485 32.597C21.2177 32.597 23.6996 31.8322 25.8225 30.5522L26.5406 30.0839C27.9142 29.1317 29.1161 27.9298 30.0839 26.5406L30.5522 25.8225C31.8322 23.6996 32.597 21.2177 32.597 18.5485C32.597 10.8062 26.2908 4.5 18.5485 4.5C10.8062 4.5 4.5 10.8062 4.5 18.5485C4.5 26.2908 10.8062 32.597 18.5485 32.597Z" fill="white"/>
<path d="M41.8533 43.4301C42.6025 43.2271 43.2269 42.6028 43.4298 41.8535C43.6483 41.0106 43.3518 40.1208 42.5869 39.356L31.0827 27.8518C30.1774 29.085 29.0847 30.162 27.8516 31.083L39.3557 42.5871C40.1206 43.352 41.026 43.6486 41.8533 43.4301Z" fill="#92CCF0"/>
<path fill-rule="evenodd" clip-rule="evenodd" d="M31.8555 26.566C33.2552 24.2326 34.097 21.4962 34.097 18.5485C34.097 9.9778 27.1192 3 18.5485 3C9.9778 3 3 9.9778 3 18.5485C3 27.1192 9.9778 34.097 18.5485 34.097C21.4962 34.097 24.2326 33.2553 26.566 31.8555C26.6284 31.9594 26.7038 32.0562 26.7911 32.1436L38.2953 43.6478C39.3356 44.6881 40.7671 45.2684 42.2365 44.8803L42.2456 44.8779C43.5093 44.5356 44.5356 43.5093 44.8778 42.2456L44.882 42.2299C45.2661 40.7484 44.6881 39.3356 43.6478 38.2953L32.1436 26.7911C32.0562 26.7038 31.9593 26.6284 31.8555 26.566ZM27.8518 31.0829C28.2559 30.7811 28.645 30.4625 29.0173 30.1271C29.4069 29.7762 29.7781 29.4069 30.1292 29.0193C30.4663 28.6471 30.7848 28.2579 31.0829 27.8518L42.5871 39.3559C43.352 40.1208 43.6485 41.0105 43.43 41.8535C43.2271 42.6027 42.6027 43.2271 41.8535 43.43C41.0262 43.6485 40.1208 43.352 39.3559 42.5871L27.8518 31.0829ZM25.8225 30.5522L26.5406 30.0839C27.9142 29.1317 29.1161 27.9298 30.0839 26.5406L30.5522 25.8225C31.8322 23.6996 32.597 21.2177 32.597 18.5485C32.597 10.8062 26.2908 4.5 18.5485 4.5C10.8062 4.5 4.5 10.8062 4.5 18.5485C4.5 26.2908 10.8062 32.597 18.5485 32.597C21.2177 32.597 23.6996 31.8322 25.8225 30.5522Z" fill="#003B71"/>
<path d="M26.7537 11.1582C27.0504 10.8615 27.0504 10.3804 26.7537 10.0837C22.3088 5.63876 15.0811 5.63876 10.6361 10.0837C10.3394 10.3804 10.3394 10.8615 10.6361 11.1582C10.9328 11.4549 11.4139 11.4549 11.7106 11.1582C15.5621 7.30662 21.8277 7.30662 25.6793 11.1582C25.976 11.4549 26.457 11.4549 26.7537 11.1582Z" fill="#003B71"/>
</svg>
