<svg width="48" height="48" viewBox="0 0 48 48" fill="none" xmlns="http://www.w3.org/2000/svg">
<path fill-rule="evenodd" clip-rule="evenodd" d="M24 4.5C23.4033 4.5 22.831 4.73705 22.409 5.15901C21.9871 5.58097 21.75 6.15326 21.75 6.75V9.75C21.75 10.3467 21.9871 10.919 22.409 11.341C22.831 11.7629 23.4033 12 24 12C24.5967 12 25.169 11.7629 25.591 11.341C26.0129 10.919 26.25 10.3467 26.25 9.75V6.75C26.25 6.15326 26.0129 5.58097 25.591 5.15901C25.169 4.73705 24.5967 4.5 24 4.5ZM24.75 9.75C24.75 9.94891 24.671 10.1397 24.5303 10.2803C24.3897 10.421 24.1989 10.5 24 10.5C23.8011 10.5 23.6103 10.421 23.4697 10.2803C23.329 10.1397 23.25 9.94891 23.25 9.75V6.75C23.25 6.55109 23.329 6.36032 23.4697 6.21967C23.6103 6.07902 23.8011 6 24 6C24.1989 6 24.3897 6.07902 24.5303 6.21967C24.671 6.36032 24.75 6.55109 24.75 6.75V9.75ZM15.51 12.33L13.395 10.215C13.189 9.99393 12.9406 9.81663 12.6646 9.69365C12.3886 9.57068 12.0907 9.50455 11.7886 9.49922C11.4865 9.49389 11.1864 9.54946 10.9062 9.66263C10.626 9.77579 10.3715 9.94422 10.1579 10.1579C9.94423 10.3715 9.77579 10.626 9.66263 10.9062C9.54947 11.1864 9.49389 11.4865 9.49922 11.7886C9.50456 12.0907 9.57068 12.3886 9.69366 12.6646C9.81663 12.9406 9.99394 13.189 10.215 13.395L12.33 15.51C12.7525 15.9307 13.3238 16.1678 13.92 16.17C14.3647 16.1696 14.7994 16.0374 15.169 15.7902C15.5386 15.5429 15.8267 15.1917 15.9969 14.7808C16.167 14.3699 16.2115 13.9178 16.1249 13.4816C16.0382 13.0454 15.8243 12.6447 15.51 12.33ZM14.46 14.46C14.3173 14.5984 14.1263 14.6758 13.9275 14.6758C13.7287 14.6758 13.5377 14.5984 13.395 14.46L11.265 12.33C11.1292 12.1891 11.0538 12.0007 11.055 11.805C11.0508 11.7054 11.0672 11.606 11.1034 11.513C11.1396 11.4201 11.1947 11.3357 11.2652 11.2652C11.3357 11.1947 11.4201 11.1396 11.513 11.1034C11.606 11.0672 11.7054 11.0507 11.805 11.055C12.0007 11.0538 12.1891 11.1292 12.33 11.265L14.46 13.395C14.5958 13.5359 14.6712 13.7243 14.67 13.92C14.6719 14.1203 14.5967 14.3136 14.46 14.46ZM24 13.5C21.9233 13.5 19.8932 14.1158 18.1665 15.2696C16.4398 16.4233 15.094 18.0632 14.2993 19.9818C13.5045 21.9004 13.2966 24.0117 13.7018 26.0485C14.1069 28.0853 15.1069 29.9562 16.5754 31.4246C18.0438 32.8931 19.9148 33.8931 21.9516 34.2982C23.9884 34.7034 26.0996 34.4955 28.0182 33.7007C29.9368 32.906 31.5767 31.5602 32.7304 29.8335C33.8842 28.1068 34.5 26.0767 34.5 24C34.5 21.2152 33.3938 18.5445 31.4246 16.5754C29.4555 14.6062 26.7848 13.5 24 13.5ZM24 33C22.22 33 20.4799 32.4722 18.9999 31.4832C17.5198 30.4943 16.3663 29.0887 15.6851 27.4442C15.0039 25.7996 14.8257 23.99 15.1729 22.2442C15.5202 20.4984 16.3774 18.8947 17.636 17.636C18.8947 16.3774 20.4984 15.5202 22.2442 15.1729C23.99 14.8257 25.7996 15.0039 27.4442 15.6851C29.0887 16.3663 30.4943 17.5198 31.4832 18.9999C32.4722 20.4799 33 22.22 33 24C33 26.3869 32.0518 28.6761 30.364 30.364C28.6761 32.0518 26.3869 33 24 33ZM9.75 21.75H6.75C6.15326 21.75 5.58097 21.9871 5.15901 22.409C4.73705 22.831 4.5 23.4033 4.5 24C4.5 24.5967 4.73705 25.169 5.15901 25.591C5.58097 26.0129 6.15326 26.25 6.75 26.25H9.75C10.3467 26.25 10.919 26.0129 11.341 25.591C11.7629 25.169 12 24.5967 12 24C12 23.4033 11.7629 22.831 11.341 22.409C10.919 21.9871 10.3467 21.75 9.75 21.75ZM9.75 24.75H6.75C6.55109 24.75 6.36032 24.671 6.21967 24.5303C6.07902 24.3897 6 24.1989 6 24C6 23.8011 6.07902 23.6103 6.21967 23.4697C6.36032 23.329 6.55109 23.25 6.75 23.25H9.75C9.94891 23.25 10.1397 23.329 10.2803 23.4697C10.421 23.6103 10.5 23.8011 10.5 24C10.5 24.1989 10.421 24.3897 10.2803 24.5303C10.1397 24.671 9.94891 24.75 9.75 24.75ZM38.25 21.75H41.25C41.8467 21.75 42.419 21.9871 42.841 22.409C43.2629 22.831 43.5 23.4033 43.5 24C43.5 24.5967 43.2629 25.169 42.841 25.591C42.419 26.0129 41.8467 26.25 41.25 26.25H38.25C37.6533 26.25 37.081 26.0129 36.659 25.591C36.2371 25.169 36 24.5967 36 24C36 23.4033 36.2371 22.831 36.659 22.409C37.081 21.9871 37.6533 21.75 38.25 21.75ZM38.25 24.75H41.25C41.4489 24.75 41.6397 24.671 41.7803 24.5303C41.921 24.3897 42 24.1989 42 24C42 23.8011 41.921 23.6103 41.7803 23.4697C41.6397 23.329 41.4489 23.25 41.25 23.25H38.25C38.0511 23.25 37.8603 23.329 37.7197 23.4697C37.579 23.6103 37.5 23.8011 37.5 24C37.5 24.1989 37.579 24.3897 37.7197 24.5303C37.8603 24.671 38.0511 24.75 38.25 24.75ZM35.67 32.49L37.785 34.605C38.0993 34.9197 38.3132 35.3204 38.3999 35.7566C38.4865 36.1928 38.442 36.6449 38.2719 37.0558C38.1017 37.4667 37.8136 37.8179 37.444 38.0652C37.0744 38.3124 36.6397 38.4446 36.195 38.445C35.5988 38.4428 35.0275 38.2057 34.605 37.785L32.49 35.67C32.2689 35.464 32.0916 35.2156 31.9687 34.9396C31.8457 34.6636 31.7796 34.3657 31.7742 34.0636C31.7689 33.7615 31.8245 33.4614 31.9376 33.1812C32.0508 32.901 32.2192 32.6465 32.4329 32.4329C32.6465 32.2192 32.901 32.0508 33.1812 31.9376C33.4614 31.8245 33.7615 31.7689 34.0636 31.7742C34.3657 31.7796 34.6636 31.8457 34.9396 31.9687C35.2156 32.0916 35.464 32.2689 35.67 32.49ZM36.2025 36.9397C36.3992 36.9397 36.5889 36.8668 36.735 36.735C36.8717 36.5886 36.9469 36.3953 36.945 36.195C36.9462 35.9993 36.8708 35.8109 36.735 35.67L34.605 33.54C34.4641 33.4042 34.2757 33.3288 34.08 33.33C33.9804 33.3258 33.881 33.3423 33.788 33.3784C33.6951 33.4146 33.6107 33.4697 33.5402 33.5402C33.4697 33.6107 33.4146 33.6951 33.3784 33.788C33.3423 33.881 33.3258 33.9804 33.33 34.08C33.3288 34.2757 33.4042 34.4641 33.54 34.605L35.67 36.735C35.8161 36.8668 36.0058 36.9397 36.2025 36.9397ZM22.409 36.659C22.831 36.2371 23.4033 36 24 36C24.5967 36 25.169 36.2371 25.591 36.659C26.0129 37.081 26.25 37.6533 26.25 38.25V41.25C26.25 41.8467 26.0129 42.419 25.591 42.841C25.169 43.2629 24.5967 43.5 24 43.5C23.4033 43.5 22.831 43.2629 22.409 42.841C21.9871 42.419 21.75 41.8467 21.75 41.25V38.25C21.75 37.6533 21.9871 37.081 22.409 36.659ZM24.5303 41.7803C24.671 41.6397 24.75 41.4489 24.75 41.25V38.25C24.75 38.0511 24.671 37.8603 24.5303 37.7197C24.3897 37.579 24.1989 37.5 24 37.5C23.8011 37.5 23.6103 37.579 23.4697 37.7197C23.329 37.8603 23.25 38.0511 23.25 38.25V41.25C23.25 41.4489 23.329 41.6397 23.4697 41.7803C23.6103 41.921 23.8011 42 24 42C24.1989 42 24.3897 41.921 24.5303 41.7803ZM37.785 10.215C37.5771 10.0046 37.3295 9.83749 37.0566 9.72346C36.7837 9.60943 36.4908 9.55071 36.195 9.55071C35.8992 9.55071 35.6063 9.60943 35.3334 9.72346C35.0605 9.83749 34.8129 10.0046 34.605 10.215L32.49 12.33C32.1757 12.6447 31.9618 13.0454 31.8751 13.4816C31.7884 13.9178 31.833 14.3699 32.0031 14.7808C32.1733 15.1917 32.4614 15.5429 32.831 15.7902C33.2006 16.0374 33.6353 16.1696 34.08 16.17C34.6762 16.1678 35.2475 15.9307 35.67 15.51L37.785 13.395C37.9954 13.1871 38.1625 12.9395 38.2765 12.6666C38.3906 12.3937 38.4493 12.1008 38.4493 11.805C38.4493 11.5092 38.3906 11.2163 38.2765 10.9434C38.1625 10.6705 37.9954 10.4229 37.785 10.215ZM36.735 12.33L34.605 14.46C34.4623 14.5984 34.2713 14.6758 34.0725 14.6758C33.8737 14.6758 33.6827 14.5984 33.54 14.46C33.4033 14.3136 33.3281 14.1203 33.33 13.92C33.3288 13.7243 33.4042 13.5359 33.54 13.395L35.67 11.265C35.8109 11.1292 35.9993 11.0538 36.195 11.055C36.2946 11.0508 36.394 11.0673 36.487 11.1034C36.5799 11.1396 36.6643 11.1947 36.7348 11.2652C36.8053 11.3357 36.8604 11.4201 36.8966 11.513C36.9327 11.606 36.9492 11.7054 36.945 11.805C36.9462 12.0007 36.8708 12.1891 36.735 12.33ZM14.7816 31.9985C15.0545 32.1125 15.3021 32.2796 15.51 32.49C15.7204 32.6979 15.8875 32.9455 16.0015 33.2184C16.1156 33.4913 16.1743 33.7842 16.1743 34.08C16.1743 34.3758 16.1156 34.6687 16.0015 34.9416C15.8875 35.2145 15.7204 35.4621 15.51 35.67L13.395 37.785C12.9725 38.2057 12.4012 38.4428 11.805 38.445C11.3603 38.4446 10.9257 38.3124 10.556 38.0652C10.1864 37.8179 9.89827 37.4667 9.72814 37.0558C9.55801 36.6449 9.51345 36.1928 9.6001 35.7566C9.68676 35.3204 9.90073 34.9197 10.215 34.605L12.33 32.49C12.5379 32.2796 12.7855 32.1125 13.0584 31.9985C13.3313 31.8844 13.6242 31.8257 13.92 31.8257C14.2158 31.8257 14.5087 31.8844 14.7816 31.9985ZM12.33 36.735L14.46 34.605C14.5958 34.4641 14.6712 34.2757 14.67 34.08C14.6742 33.9804 14.6578 33.8809 14.6216 33.788C14.5854 33.6951 14.5303 33.6107 14.4598 33.5402C14.3893 33.4697 14.3049 33.4146 14.212 33.3784C14.119 33.3422 14.0196 33.3257 13.92 33.33C13.7243 33.3288 13.5359 33.4042 13.395 33.54L11.265 35.67C11.1292 35.8109 11.0538 35.9993 11.055 36.195C11.0531 36.3953 11.1283 36.5886 11.265 36.735C11.4111 36.8668 11.6008 36.9397 11.7975 36.9397C11.9942 36.9397 12.1839 36.8668 12.33 36.735Z" fill="#003B71"/>
<path d="M24 33C28.9706 33 33 28.9706 33 24C33 19.0294 28.9706 15 24 15C19.0294 15 15 19.0294 15 24C15 28.9706 19.0294 33 24 33Z" fill="#92CCF0"/>
<path fill-rule="evenodd" clip-rule="evenodd" d="M24 6C23.8011 6 23.6103 6.07902 23.4697 6.21967C23.329 6.36032 23.25 6.55109 23.25 6.75V9.75C23.25 9.94891 23.329 10.1397 23.4697 10.2803C23.6103 10.421 23.8011 10.5 24 10.5C24.1989 10.5 24.3897 10.421 24.5303 10.2803C24.671 10.1397 24.75 9.94891 24.75 9.75V6.75C24.75 6.55109 24.671 6.36032 24.5303 6.21967C24.3897 6.07902 24.1989 6 24 6ZM12.33 11.265C12.1891 11.1292 12.0007 11.0538 11.805 11.055C11.7054 11.0508 11.606 11.0673 11.513 11.1034C11.4201 11.1396 11.3357 11.1947 11.2652 11.2652C11.1947 11.3357 11.1396 11.4201 11.1034 11.513C11.0672 11.606 11.0508 11.7054 11.055 11.805C11.0538 12.0007 11.1292 12.1891 11.265 12.33L13.395 14.46C13.5377 14.5984 13.7287 14.6758 13.9275 14.6758C14.1263 14.6758 14.3173 14.5984 14.46 14.46C14.5967 14.3136 14.6719 14.1203 14.67 13.92C14.6712 13.7243 14.5958 13.5359 14.46 13.395L12.33 11.265ZM6.75 23.25H9.75C9.94891 23.25 10.1397 23.329 10.2803 23.4697C10.421 23.6103 10.5 23.8011 10.5 24C10.5 24.1989 10.421 24.3897 10.2803 24.5303C10.1397 24.671 9.94891 24.75 9.75 24.75H6.75C6.55109 24.75 6.36032 24.671 6.21967 24.5303C6.07902 24.3897 6 24.1989 6 24C6 23.8011 6.07902 23.6103 6.21967 23.4697C6.36032 23.329 6.55109 23.25 6.75 23.25ZM38.25 23.25H41.25C41.4489 23.25 41.6397 23.329 41.7803 23.4697C41.921 23.6103 42 23.8011 42 24C42 24.1989 41.921 24.3897 41.7803 24.5303C41.6397 24.671 41.4489 24.75 41.25 24.75H38.25C38.0511 24.75 37.8603 24.671 37.7197 24.5303C37.579 24.3897 37.5 24.1989 37.5 24C37.5 23.8011 37.579 23.6103 37.7197 23.4697C37.8603 23.329 38.0511 23.25 38.25 23.25ZM34.08 33.33C34.2757 33.3288 34.4641 33.4042 34.605 33.54L36.735 35.67C36.8708 35.8109 36.9462 35.9993 36.945 36.195C36.9469 36.3953 36.8717 36.5886 36.735 36.735C36.5889 36.8667 36.3992 36.9397 36.2025 36.9397C36.0058 36.9397 35.8161 36.8667 35.67 36.735L33.54 34.605C33.4042 34.4641 33.3288 34.2757 33.33 34.08C33.3258 33.9804 33.3422 33.8809 33.3784 33.788C33.4146 33.6951 33.4697 33.6107 33.5402 33.5402C33.6107 33.4697 33.6951 33.4146 33.788 33.3784C33.881 33.3422 33.9804 33.3257 34.08 33.33ZM23.4697 37.7197C23.6103 37.579 23.8011 37.5 24 37.5C24.1989 37.5 24.3897 37.579 24.5303 37.7197C24.671 37.8603 24.75 38.0511 24.75 38.25V41.25C24.75 41.4489 24.671 41.6397 24.5303 41.7803C24.3897 41.921 24.1989 42 24 42C23.8011 42 23.6103 41.921 23.4697 41.7803C23.329 41.6397 23.25 41.4489 23.25 41.25V38.25C23.25 38.0511 23.329 37.8603 23.4697 37.7197ZM36.195 11.055C35.9993 11.0538 35.8109 11.1292 35.67 11.265L33.54 13.395C33.4042 13.5359 33.3288 13.7243 33.33 13.92C33.3281 14.1203 33.4033 14.3136 33.54 14.46C33.6827 14.5984 33.8737 14.6758 34.0725 14.6758C34.2713 14.6758 34.4623 14.5984 34.605 14.46L36.735 12.33C36.8708 12.1891 36.9462 12.0007 36.945 11.805C36.9492 11.7054 36.9328 11.606 36.8966 11.513C36.8604 11.4201 36.8053 11.3357 36.7348 11.2652C36.6643 11.1947 36.5799 11.1396 36.487 11.1034C36.394 11.0673 36.2946 11.0508 36.195 11.055ZM13.395 33.54C13.5359 33.4042 13.7243 33.3288 13.92 33.33C14.0196 33.3257 14.119 33.3422 14.212 33.3784C14.3049 33.4146 14.3893 33.4697 14.4598 33.5402C14.5303 33.6107 14.5854 33.6951 14.6216 33.788C14.6578 33.8809 14.6742 33.9804 14.67 34.08C14.6712 34.2757 14.5958 34.4641 14.46 34.605L12.33 36.735C12.1839 36.8667 11.9942 36.9397 11.7975 36.9397C11.6008 36.9397 11.4111 36.8667 11.265 36.735C11.1283 36.5886 11.0531 36.3953 11.055 36.195C11.0538 35.9993 11.1292 35.8109 11.265 35.67L13.395 33.54Z" fill="white"/>
</svg>
