<svg width="40" height="40" viewBox="0 0 40 40" fill="none" xmlns="http://www.w3.org/2000/svg">
<path d="M20 0C8.955 0 0 8.955 0 20C0 31.045 8.955 40 20 40C31.045 40 40 31.045 40 20C40 8.955 31.045 0 20 0ZM20 31.6667C18.7983 31.6667 17.6367 31.485 16.545 31.1467C17.0217 30.3717 17.7333 29.1017 17.995 28.0883L18.7233 25.315C19.105 26.0417 20.215 26.655 21.3967 26.655C24.915 26.655 27.4517 23.42 27.4517 19.3983C27.4517 15.545 24.305 12.6617 20.2583 12.6617C15.2233 12.6617 12.55 16.04 12.55 19.72C12.55 21.4317 13.4617 23.5617 14.92 24.24C15.14 24.3433 15.2583 24.2967 15.31 24.0833L15.6317 22.7617C15.66 22.6433 15.6467 22.5417 15.55 22.425C15.07 21.8417 14.6817 20.7667 14.6817 19.7633C14.6817 17.19 16.63 14.7 19.95 14.7C22.8167 14.7 24.8233 16.6533 24.8233 19.4467C24.8233 22.6033 23.2283 24.7883 21.155 24.7883C20.01 24.7883 19.1533 23.8417 19.4283 22.68C19.7567 21.2917 20.395 19.7967 20.395 18.795C20.395 17.9 19.915 17.1517 18.9183 17.1517C17.7483 17.1517 16.805 18.3633 16.805 19.985C16.805 21.02 17.1567 21.7183 17.1567 21.7183C17.1567 21.7183 16 26.6083 15.7883 27.5167C15.5517 28.525 15.645 29.94 15.7467 30.8633C11.4083 29.1633 8.33333 24.9417 8.33333 20C8.33333 13.5567 13.5583 8.33333 20 8.33333C26.4417 8.33333 31.6667 13.5567 31.6667 20C31.6667 26.4433 26.4417 31.6667 20 31.6667V31.6667Z" fill="white"/>
</svg>
