<svg width="40" height="40" viewBox="0 0 40 40" fill="none" xmlns="http://www.w3.org/2000/svg">
<path fill-rule="evenodd" clip-rule="evenodd" d="M8.25 13.5C8.25 14.6046 7.35457 15.5 6.25 15.5C5.14543 15.5 4.25 14.6046 4.25 13.5C4.25 12.3954 5.14543 11.5 6.25 11.5C7.35457 11.5 8.25 12.3954 8.25 13.5ZM9.75 13.5C9.75 15.433 8.183 17 6.25 17C4.317 17 2.75 15.433 2.75 13.5C2.75 11.567 4.317 10 6.25 10C8.183 10 9.75 11.567 9.75 13.5ZM5.75 18.25C2.57436 18.25 0 20.8244 0 24V25H1.5V24C1.5 21.6528 3.40279 19.75 5.75 19.75H6.75C9.09721 19.75 11 21.6528 11 24V25H12.5V24C12.5 20.8244 9.92564 18.25 6.75 18.25H5.75Z" fill="#58616B"/>
<path fill-rule="evenodd" clip-rule="evenodd" d="M35.75 13.5C35.75 14.6046 34.8546 15.5 33.75 15.5C32.6454 15.5 31.75 14.6046 31.75 13.5C31.75 12.3954 32.6454 11.5 33.75 11.5C34.8546 11.5 35.75 12.3954 35.75 13.5ZM37.25 13.5C37.25 15.433 35.683 17 33.75 17C31.817 17 30.25 15.433 30.25 13.5C30.25 11.567 31.817 10 33.75 10C35.683 10 37.25 11.567 37.25 13.5ZM33.25 18.25C30.0744 18.25 27.5 20.8244 27.5 24V25H29V24C29 21.6528 30.9028 19.75 33.25 19.75H34.25C36.5972 19.75 38.5 21.6528 38.5 24V25H40V24C40 20.8244 37.4256 18.25 34.25 18.25H33.25Z" fill="#7BD3CF"/>
<path fill-rule="evenodd" clip-rule="evenodd" d="M24 10C24 12.2091 22.2091 14 20 14C17.7909 14 16 12.2091 16 10C16 7.79086 17.7909 6 20 6C22.2091 6 24 7.79086 24 10ZM28 10C28 14.4183 24.4183 18 20 18C15.5817 18 12 14.4183 12 10C12 5.58172 15.5817 2 20 2C24.4183 2 28 5.58172 28 10ZM18 20C9.16344 20 2 27.1634 2 36V37H6V36C6 29.3726 11.3726 24 18 24H22C28.6274 24 34 29.3726 34 36V37H38V36C38 27.1634 30.8366 20 22 20H18Z" fill="#003B71"/>
</svg>
