<?xml version="1.0" encoding="UTF-8"?> <svg xmlns="http://www.w3.org/2000/svg" width="16" height="18" viewBox="0 0 16 18" fill="none"><path d="M8.13476 9.16833C10.3904 9.16833 12.2189 7.33979 12.2189 5.08417C12.2189 2.82854 10.3904 1 8.13476 1C5.87914 1 4.0506 2.82854 4.0506 5.08417C4.0506 7.33979 5.87914 9.16833 8.13476 9.16833Z" stroke="#DF2F32"></path><path d="M12.219 10.802H12.5063C13.742 10.802 14.7845 11.7222 14.9378 12.9486L15.2568 15.5003C15.3787 16.4754 14.6183 17.3367 13.6357 17.3367H2.6339C1.65126 17.3367 0.890976 16.4754 1.01286 15.5003L1.33183 12.9486C1.48512 11.7222 2.52757 10.802 3.76341 10.802H4.05065" stroke="#DF2F32" stroke-linecap="round" stroke-linejoin="round"></path></svg> 