<?xml version="1.0" encoding="UTF-8"?> <svg xmlns="http://www.w3.org/2000/svg" xmlns:xlink="http://www.w3.org/1999/xlink" version="1.1" id="Livello_1" x="0px" y="0px" viewBox="0 0 236.2 82.8" style="enable-background:new 0 0 236.2 82.8;" xml:space="preserve"> <style type="text/css"> .st0{fill:#DF2F32;} </style> <path class="st0" d="M236.2,76h-16.9v-7.8c0-0.8,0-1.6-0.2-2.4c-0.3-1-1-1.8-1.9-2.2c-0.8-0.4-1.7-0.8-2.6-1c-1-0.2-2-0.4-3-0.4 c-0.9,0-1.8,0.1-2.6,0.3c-0.8,0.1-1.5,0.4-2.3,0.7c-1.1,0.5-1.7,1.2-1.7,2c0,0.5,0.2,1,0.5,1.3c0.4,0.3,0.8,0.5,1.3,0.5 c0.7,0,1.4-0.4,1.7-1.1l0.6-1.3c0.2-0.6,0.6-1,1.1-1.3c0.5-0.3,1.1-0.5,1.7-0.5c0.5,0,1,0.1,1.5,0.3c0.5,0.2,0.9,0.5,1.2,0.9 c0.8,1.2,1.1,2.6,1,4c0,0.7-0.1,1.4-0.3,2c-0.2,0.5-0.6,0.9-1,1.3c-0.5,0.4-1,0.6-1.6,0.8c-0.6,0.2-1.6,0.5-3,0.9 c-0.9,0.2-1.8,0.5-2.6,0.9c-0.6,0.3-1.1,0.7-1.6,1.2c-0.3,0.3-0.5,0.6-0.7,1H199V62.3l-6.7,0.8v0.5c0.6,0,1.1,0.1,1.6,0.4 c0.4,0.2,0.8,0.5,1,0.9c0.3,0.5,0.5,1,0.5,1.6c0.1,1.1,0.1,2.2,0.1,3.3V76h-8.1v-7.8c0-0.8,0-1.6-0.2-2.4c-0.3-1-1-1.8-1.9-2.2 c-0.8-0.4-1.7-0.8-2.6-1c-1-0.2-2-0.4-3-0.4c-0.9,0-1.8,0.1-2.6,0.3c-0.8,0.1-1.5,0.4-2.3,0.7c-1.1,0.5-1.7,1.2-1.7,2 c0,0.5,0.2,1,0.5,1.3c0.4,0.3,0.8,0.5,1.3,0.5c0.7,0,1.4-0.4,1.7-1.1l0.6-1.3c0.2-0.5,0.6-1,1.1-1.3c0.5-0.3,1.1-0.5,1.7-0.5 c0.5,0,1,0.1,1.5,0.3c0.5,0.2,0.9,0.5,1.2,0.9c0.8,1.2,1.1,2.6,1,4c0,0.7-0.1,1.4-0.3,2c-0.2,0.5-0.6,0.9-1,1.3 c-0.5,0.4-1,0.6-1.6,0.8c-0.6,0.2-1.6,0.5-3,0.9c-0.9,0.2-1.8,0.5-2.6,0.9c-0.6,0.3-1.2,0.7-1.6,1.2c-0.3,0.3-0.5,0.6-0.7,1h-5.9 V49.7l-6.7,0.8V51c0.6,0,1.1,0.1,1.6,0.3c0.4,0.2,0.7,0.5,1,0.9c0.3,0.5,0.5,1,0.5,1.6c0.1,0.7,0.1,1.8,0.1,3.3V76h-8V49.7l-6.7,0.8 V51c0.6,0,1.1,0.1,1.6,0.3c0.4,0.2,0.8,0.5,1,0.9c0.3,0.5,0.5,1,0.5,1.6c0.1,1.1,0.1,2.2,0.1,3.3v18.3c0,0.2,0,0.3,0,0.5h-19.4 c-0.1-0.2-0.2-0.4-0.3-0.7c-0.4-1.3-0.6-2.6-0.6-4c0-0.3,0-0.9,0.1-1.7h13.7c0.1-1.8-0.5-3.5-1.7-4.9c-0.7-0.8-1.7-1.5-2.7-1.9 c-1.1-0.4-2.3-0.7-3.5-0.7c-2.3,0-4.5,0.7-6.2,2.2c-2.5,2-3.9,5-3.8,8.2c0,1.1,0.2,2.3,0.5,3.4h-10.9v-4.7c-0.1-1.9,0.2-3.9,0.9-5.7 c0.6-1.4,1.4-2,2.5-2c0.8,0,1.5,0.3,2,0.9l0.7,0.8c0.3,0.4,0.8,0.7,1.4,0.7c0.4,0,0.8-0.1,1.1-0.4c0.3-0.3,0.4-0.7,0.4-1.1 c0-0.6-0.3-1.1-0.7-1.5c-0.7-0.5-1.5-0.7-2.3-0.7c-1.6,0-3.1,0.5-4.4,1.4c-0.8,0.6-1.4,1.3-1.9,2.2c0-1.2-0.2-2.4-0.4-3.6l-6,0.8 v0.5c0.6,0,1.1,0.1,1.6,0.4c0.4,0.2,0.8,0.5,1,0.9c0.3,0.5,0.5,1,0.5,1.6c0.1,0.6,0.1,1.8,0.1,3.3V76h-6.2c0.4-1.1,0.6-2.2,0.6-3.4 c0-2.5-1-5-2.8-6.8c-4.1-4.5-11.1-4.8-15.5-0.7c-0.2,0.2-0.5,0.5-0.7,0.7c-1.8,1.8-2.8,4.2-2.8,6.7c0,1.2,0.2,2.3,0.7,3.4h-6V62.3 l-6.7,0.8v0.5c0.6,0,1.1,0.1,1.6,0.4c0.4,0.2,0.8,0.5,1,0.9c0.3,0.5,0.5,1,0.5,1.6c0.1,1.1,0.1,2.2,0.1,3.3v5.7c0,0.2,0,0.3,0,0.5 h-9.8V63.5h4.6v-0.9h-4.6v-6.2c0-1,0-2,0.2-3.1c0.1-0.6,0.3-1.2,0.7-1.7c0.3-0.4,0.8-0.7,1.2-1c0.5-0.2,1.1-0.4,1.7-0.4 c0.4,0,0.8,0.1,1.1,0.3c0.4,0.4,0.8,0.9,1.1,1.4c0.2,0.4,0.6,0.8,0.9,1.1c0.3,0.2,0.7,0.3,1.1,0.3c0.4,0,0.8-0.2,1.1-0.5 c0.2-0.2,0.3-0.4,0.4-0.6c-0.1-0.2-0.1-0.4-0.1-0.6c0-0.2,0-0.4,0.1-0.5c-0.2-0.5-0.5-0.9-1-1.1c-0.9-0.5-1.9-0.7-2.9-0.6 c-1.3,0-2.5,0.2-3.7,0.5c-1.1,0.3-2.1,0.7-3,1.4c-0.8,0.6-1.5,1.3-1.9,2.2c-0.4,1-0.6,2.1-0.5,3.2v5.7H61v0.9h3.4v12 c0,0.2,0,0.3,0,0.5h-20v-7.8c0-0.8,0-1.6-0.2-2.4c-0.3-1-1-1.8-1.9-2.2c-0.8-0.4-1.7-0.8-2.6-1c-1-0.2-2-0.4-3-0.4 c-0.9,0-1.8,0.1-2.6,0.3c-0.8,0.1-1.5,0.4-2.2,0.7c-1.1,0.5-1.7,1.2-1.7,2c0,0.5,0.2,1,0.5,1.3C31,66.8,31.5,67,32,67 c0.7,0,1.4-0.4,1.7-1.1l0.6-1.3c0.2-0.6,0.6-1,1.1-1.3c0.5-0.3,1.1-0.5,1.7-0.5c0.5,0,1.1,0.1,1.5,0.3c0.5,0.2,0.9,0.5,1.2,0.9 c0.8,1.2,1.1,2.6,1,4c0,0.7-0.1,1.4-0.3,2c-0.2,0.5-0.6,0.9-1,1.3c-0.5,0.4-1,0.6-1.6,0.8c-0.6,0.2-1.6,0.5-3,0.9 c-0.9,0.2-1.8,0.5-2.6,0.9c-0.6,0.3-1.1,0.7-1.6,1.2c-0.3,0.3-0.5,0.6-0.7,1H24V49.7l-6.7,0.8V51c0.6,0,1.1,0.1,1.6,0.3 c0.4,0.2,0.8,0.5,1,0.9c0.3,0.5,0.5,1,0.5,1.6c0.1,1.1,0.1,2.2,0.1,3.3V76H0v0.8h20.4c0,0.7,0,1.3-0.1,1.8c0,0.6-0.2,1.1-0.4,1.6 c-0.2,0.5-0.6,0.9-1,1.2c-0.6,0.3-1.3,0.5-2,0.5v0.5h10.3v-0.5c-0.9-0.1-1.7-0.4-2.4-1c-0.4-0.3-0.6-0.8-0.7-1.2 c-0.2-0.8-0.2-1.5-0.2-2.3v-0.6h5.6c-0.1,0.5-0.2,0.9-0.2,1.4c-0.1,1.3,0.5,2.5,1.5,3.3c1.2,0.9,2.6,1.3,4.1,1.2 c1.2,0,2.4-0.3,3.5-0.8c0.8-0.5,1.6-1.2,2.4-1.8c0.4,0.7,0.9,1.3,1.5,1.9c0.8,0.6,1.8,0.8,2.8,0.8c2,0,3.3-0.8,3.9-2.5l-0.4-0.2 c-0.3,0.4-0.6,0.7-1,1c-0.3,0.2-0.7,0.3-1.1,0.2c-1,0-1.8-0.7-1.9-1.7c-0.2-1-0.2-1.9-0.2-2.9h20c0,0.7,0,1.3-0.1,1.8 c0,0.6-0.2,1.1-0.4,1.6c-0.2,0.5-0.6,0.9-1,1.2c-0.6,0.3-1.3,0.5-2,0.5v0.5h10.3v-0.5c-0.9-0.1-1.7-0.4-2.4-1 c-0.4-0.3-0.6-0.8-0.7-1.2c-0.2-0.8-0.2-1.5-0.2-2.3v-0.6h9.8c0,0.7,0,1.3-0.1,1.8c0,0.6-0.2,1.1-0.4,1.6c-0.2,0.5-0.5,0.9-1,1.2 c-0.6,0.3-1.3,0.5-2,0.5v0.5h10.3v-0.5c-0.9-0.1-1.7-0.4-2.4-1c-0.4-0.3-0.6-0.7-0.7-1.2c-0.2-0.8-0.2-1.5-0.2-2.3v-0.6h6.4 c0.4,0.9,1,1.7,1.6,2.4c2.1,2.4,5.1,3.7,8.3,3.6c3.1,0.1,6.2-1.2,8.2-3.6c0.6-0.7,1.2-1.5,1.6-2.4h6.5c0,0.7,0,1.3-0.1,1.8 c0,0.6-0.2,1.1-0.4,1.6c-0.2,0.5-0.6,0.9-1,1.2c-0.6,0.3-1.3,0.5-2,0.5v0.5h10.3v-0.5c-0.9-0.1-1.7-0.4-2.4-1 c-0.4-0.3-0.6-0.8-0.7-1.2c-0.1-0.8-0.2-1.5-0.2-2.3v-0.6h11.2c0.3,0.8,0.7,1.6,1.2,2.3c0.9,1.2,2.1,2.2,3.5,2.8 c1.6,0.6,3.2,1,4.9,0.9c1.9,0.1,3.7-0.4,5.3-1.4c1.4-1,2.3-2.5,2.6-4.1l-0.5-0.2c-0.3,1-0.8,1.9-1.4,2.6c-0.5,0.5-1.2,0.9-1.9,1.2 c-0.8,0.3-1.6,0.4-2.4,0.4c-1.1,0-2.2-0.3-3.2-0.7c-1-0.5-1.9-1.1-2.6-2c-0.4-0.5-0.7-1.1-1-1.7h19c0,0.7,0,1.3-0.1,1.8 c0,0.6-0.2,1.1-0.4,1.6c-0.2,0.5-0.6,0.9-1,1.2c-0.6,0.3-1.3,0.5-2,0.5v0.5h10.3v-0.5c-0.9-0.1-1.7-0.4-2.4-1 c-0.4-0.3-0.6-0.8-0.7-1.2c-0.1-0.8-0.2-1.5-0.2-2.3v-0.6h8c0,0.7,0,1.3-0.1,1.8c0,0.6-0.2,1.1-0.4,1.6c-0.2,0.5-0.6,0.9-1,1.2 c-0.6,0.3-1.3,0.5-2,0.5v0.5h10.3v-0.5c-0.9-0.1-1.7-0.4-2.4-0.9c-0.3-0.3-0.6-0.8-0.7-1.2c-0.1-0.8-0.2-1.5-0.2-2.3v-0.6h5.6 c-0.1,0.5-0.2,0.9-0.2,1.4c0,1.3,0.5,2.5,1.5,3.3c1.2,0.9,2.6,1.3,4.1,1.2c1.2,0,2.4-0.3,3.5-0.8c0.8-0.5,1.6-1.1,2.4-1.8 c0.4,0.7,0.9,1.3,1.5,1.9c0.8,0.6,1.8,0.8,2.8,0.8c2,0,3.3-0.8,3.8-2.5l-0.4-0.2c-0.3,0.4-0.6,0.7-1,1c-0.3,0.2-0.7,0.3-1.1,0.2 c-1,0-1.8-0.7-1.9-1.7c-0.2-1-0.2-1.9-0.2-2.9h8c0,0.7,0,1.3-0.1,1.8c0,0.6-0.2,1.1-0.4,1.6c-0.2,0.5-0.6,0.9-1,1.2 c-0.6,0.3-1.3,0.5-2,0.5v0.5h10.3v-0.5c-0.9-0.1-1.7-0.4-2.4-1c-0.4-0.3-0.6-0.8-0.7-1.2c-0.1-0.8-0.2-1.5-0.2-2.3v-0.6h5.6 c-0.1,0.5-0.2,0.9-0.2,1.4c0,1.3,0.5,2.5,1.5,3.3c1.2,0.9,2.6,1.3,4.1,1.2c1.2,0,2.4-0.3,3.5-0.8c0.8-0.5,1.6-1.1,2.4-1.8 c0.4,0.7,0.9,1.4,1.5,1.9c0.8,0.6,1.8,0.8,2.8,0.8c2,0,3.3-0.8,3.8-2.5l-0.4-0.2c-0.3,0.4-0.6,0.7-1,1c-0.3,0.2-0.7,0.3-1.1,0.2 c-1,0-1.8-0.7-1.9-1.7c-0.2-1-0.2-1.9-0.2-2.9h16.9L236.2,76L236.2,76z M33.6,76.8h7c-0.1,0.9-0.3,1.7-0.6,2.5 c-0.3,0.8-0.8,1.4-1.5,1.9c-0.6,0.5-1.4,0.7-2.1,0.7c-0.8,0-1.6-0.4-2.1-1c-0.6-0.7-0.9-1.6-0.9-2.5C33.3,77.9,33.4,77.4,33.6,76.8 L33.6,76.8z M40.7,76H34c0.1-0.3,0.3-0.5,0.5-0.7c0.3-0.4,0.7-0.8,1.2-1.1c0.8-0.5,1.5-1,2.4-1.4c1-0.5,1.9-1.1,2.8-1.8v3.9 C40.8,75.3,40.8,75.6,40.7,76L40.7,76z M91.5,76.8h11.9c-0.3,1-0.7,1.9-1.3,2.8c-0.5,0.8-1.2,1.5-2,2c-0.7,0.5-1.6,0.7-2.4,0.7 c-2,0-3.7-1-5-3.1C92.1,78.5,91.8,77.7,91.5,76.8L91.5,76.8z M103.6,76H91.2c-0.3-1.2-0.5-2.5-0.5-3.7c-0.1-2.4,0.6-4.8,1.9-6.8 c0.9-1.6,2.7-2.7,4.5-2.8c1.9,0,3.7,1,4.7,2.6c0.7,1,1.3,2.1,1.6,3.3C104.3,71.1,104.3,73.6,103.6,76L103.6,76z M132.1,68.8 c0.1-1.6,0.8-3.1,1.8-4.3c0.8-1.1,2.1-1.7,3.5-1.7c0.8,0,1.6,0.2,2.2,0.7c0.7,0.4,1.3,1.1,1.7,1.8c0.5,1.1,0.8,2.3,0.9,3.6H132.1z M176.7,76.8h7c-0.1,0.9-0.3,1.7-0.6,2.5c-0.3,0.8-0.8,1.4-1.5,1.9c-0.6,0.5-1.4,0.7-2.2,0.7c-0.8,0-1.6-0.4-2.1-1 c-0.6-0.7-0.9-1.6-0.8-2.5C176.5,77.9,176.5,77.3,176.7,76.8L176.7,76.8z M183.8,76h-6.7c0.1-0.2,0.3-0.5,0.5-0.7 c0.3-0.4,0.7-0.8,1.2-1.1c0.8-0.5,1.5-1,2.3-1.4c1-0.5,1.9-1.1,2.8-1.8v3.9C183.9,75.2,183.9,75.6,183.8,76L183.8,76z M208.7,76.8h7 c-0.1,0.9-0.3,1.7-0.6,2.5c-0.3,0.8-0.8,1.4-1.5,1.9c-0.6,0.5-1.4,0.7-2.2,0.7c-0.8,0-1.6-0.4-2.1-1c-0.6-0.7-0.9-1.6-0.8-2.5 C208.4,77.9,208.5,77.3,208.7,76.8L208.7,76.8z M215.8,76H209c0.1-0.2,0.3-0.5,0.5-0.7c0.3-0.4,0.7-0.8,1.2-1.1 c0.8-0.5,1.5-1,2.3-1.4c1-0.5,1.9-1.1,2.8-1.8v3.9C215.8,75.2,215.8,75.6,215.8,76L215.8,76z M77.4,51.9c0,0.2,0,0.4-0.1,0.5 c0.1,0.3,0.2,0.6,0.5,0.8c0.4,0.4,0.9,0.6,1.5,0.6c0.6,0,1.1-0.2,1.5-0.6c0.4-0.4,0.6-0.9,0.6-1.5c0-0.5-0.2-1.1-0.6-1.5 c-0.8-0.8-2.2-0.8-3,0c-0.3,0.3-0.4,0.6-0.5,0.9C77.3,51.5,77.4,51.7,77.4,51.9L77.4,51.9z M198.6,53.3c0.4-0.4,0.6-0.9,0.6-1.5 c0-0.5-0.2-1.1-0.6-1.5c-0.8-0.8-2.2-0.8-3,0c-0.4,0.4-0.6,0.9-0.6,1.5c0,0.6,0.2,1.1,0.6,1.5C196.5,54,197.7,54,198.6,53.3 L198.6,53.3z M137.5,21.1c3.5-7.7,1.3-20.6,1.3-20.6s0.1-0.2-4.1,0.1c-4.4,0.5-8.6,2-12.3,4.3c-1.2,0.9-2.8,2-4.5,3.5 c-2.7-2.7-5.8-4.9-9.3-6.5c-3.5-1.3-7.2-2-10.9-2c-0.8,3.7-1.2,7.5-1,11.3c0.1,7.1,1.7,11.6,6,16.7c4.4,5.3,11.3,7.9,18.1,6.9 C127.7,33.7,134.1,28.9,137.5,21.1L137.5,21.1z M118.7,11.7c0.7,0.8,1.4,1.6,2,2.5c1.1,1.8,2,3.6,2.7,5.6c0.5,1.9-0.1,3.9-1.6,5.2 c-1.2,0.6-2.6,0.9-4,0.8c-0.2-0.6-0.4-1.2-0.4-1.9c-0.1-2.1-0.1-4.3,0.1-6.4C117.7,15.6,118.1,13.6,118.7,11.7L118.7,11.7z M138,11 c-0.3,3.7-1.3,10.9-4.8,14.7c-4,4.5-8.5,7-12.5,7.4s-9.7,0-14.3-3.8c-4.5-3.7-7-7.4-7.7-13.7c-0.5-3.6-0.6-7.3-0.2-11 C98.7,2.9,99,1.4,99,1.4s3.3,0.5,4.9,0.8c3,0.6,8.8,3.5,10.7,5.2c0.8,0.7,1.5,1.5,2.2,2.3c-1.5,1.4-2.9,3-4,4.7 c-2.5,3.7-3.1,5.9-2.2,8.7s4.4,3.4,4.4,3.4l0.1-0.9c-1.1-0.4-2.2-0.4-3.2-2.8c-0.7-1.6,0.1-3.2,0.7-4.6c0.8-1.5,1.9-2.8,3.3-3.8 c0,0,0,0.5-0.3,4.5c-0.2,3.5,0.4,7.1,1.7,10.4c0.4,1,1.4,1.6,2.5,1.3c0.9,0-0.1-0.6-0.9-1.8c-0.4-0.7-0.8-1.4-1-2.2 c0.1,0,0.5,0.1,1.5,0.2c2.4,0.3,4.7-1,5.7-3.2c1.4-3.1-1.9-8.6-4.5-12.2c-0.2-0.3-0.5-0.6-0.8-1c1.6-1.6,3.3-3,5.2-4.2 c2.5-1.7,5.2-3,8.1-3.7c1.5-0.4,3-0.6,4.6-0.5C138,4.9,138.1,8,138,11z"></path> </svg> 