<?xml version="1.0" encoding="UTF-8"?> <svg xmlns="http://www.w3.org/2000/svg" width="11" height="11" viewBox="0 0 11 11" fill="none"><path d="M5.5 2.98336C5.16949 2.98242 4.84206 3.04685 4.53654 3.17292C4.23102 3.29899 3.95344 3.48423 3.71977 3.71797C3.4861 3.95171 3.30095 4.22935 3.17497 4.53491C3.049 4.84047 2.98468 5.16792 2.98571 5.49843C2.98478 5.82883 3.04918 6.15616 3.17522 6.46159C3.30125 6.76701 3.48643 7.04451 3.7201 7.2781C3.95377 7.5117 4.23132 7.69679 4.53678 7.82273C4.84224 7.94867 5.16959 8.01297 5.5 8.01193C5.83034 8.01286 6.1576 7.94848 6.46298 7.8225C6.76835 7.69652 7.04581 7.51141 7.27939 7.27782C7.51298 7.04424 7.69809 6.76678 7.82407 6.46141C7.95006 6.15603 8.01443 5.82877 8.0135 5.49843C8.01464 5.16796 7.95042 4.84052 7.82453 4.53497C7.69863 4.22941 7.51356 3.95177 7.27995 3.71802C7.04635 3.48426 6.76882 3.29902 6.46334 3.17293C6.15787 3.04685 5.83047 2.98242 5.5 2.98336ZM5.5 7.10836C5.07281 7.10836 4.66312 6.93866 4.36105 6.63659C4.05899 6.33452 3.88929 5.92483 3.88929 5.49764C3.88929 5.07045 4.05899 4.66076 4.36105 4.3587C4.66312 4.05663 5.07281 3.88693 5.5 3.88693C5.92719 3.88693 6.33688 4.05663 6.63895 4.3587C6.94101 4.66076 7.11071 5.07045 7.11071 5.49764C7.11071 5.92483 6.94101 6.33452 6.63895 6.63659C6.33688 6.93866 5.92719 7.10836 5.5 7.10836ZM9.42857 1.57143C9.18343 1.32629 8.73479 1.37657 8.42836 1.683C8.12193 1.99021 8.07243 2.4365 8.31757 2.68243C8.56271 2.92836 9.01057 2.87886 9.31779 2.57164C9.62421 2.26521 9.67371 1.81657 9.42857 1.57143ZM1.683 8.42993C1.37579 8.73636 1.32629 9.18343 1.57143 9.42857C1.81657 9.67371 2.26443 9.625 2.57164 9.31779C2.87886 9.01057 2.92836 8.56271 2.68321 8.31757C2.43807 8.07243 1.98943 8.12271 1.683 8.42993ZM1.57143 1.57143C1.32629 1.81657 1.37579 2.26521 1.68221 2.57164C1.98943 2.87886 2.43729 2.92757 2.68243 2.68243C2.92757 2.43729 2.87807 1.98864 2.57086 1.68221C2.26521 1.37657 1.81657 1.32629 1.57143 1.57143ZM8.42836 9.31621C8.73479 9.62343 9.18264 9.67371 9.42857 9.42857C9.6745 9.18343 9.62421 8.73479 9.317 8.42757C9.00979 8.12036 8.56271 8.07164 8.31679 8.31679C8.07086 8.56193 8.12193 9.00979 8.42836 9.31621ZM5.5 1.56986C5.8465 1.56986 6.12857 1.21864 6.12857 0.784143C6.12779 0.349643 5.8465 0 5.5 0C5.15271 0 4.87064 0.349643 4.87064 0.784143C4.87064 1.21864 5.15193 1.56986 5.5 1.56986ZM5.5 11C5.8465 11 6.12857 10.6488 6.12857 10.2143C6.12857 9.77979 5.84729 9.43014 5.50079 9.43014C5.1535 9.43014 4.87143 9.77979 4.87143 10.2143C4.87064 10.6488 5.15193 11 5.5 11ZM1.57143 5.5C1.57143 5.1535 1.21786 4.87143 0.783357 4.87143C0.348857 4.87143 0 5.1535 0 5.5C0 5.84729 0.348857 6.12857 0.783357 6.12857C1.21786 6.12857 1.57143 5.84729 1.57143 5.5ZM11 5.5C11 5.1535 10.648 4.87143 10.2135 4.87143C9.779 4.87143 9.42857 5.1535 9.42857 5.5C9.42857 5.84729 9.779 6.12857 10.2135 6.12857C10.648 6.12857 11 5.84729 11 5.5Z" fill="#DF2F32"></path></svg> 